<svg viewBox="0 0 330 200" xmlns="http://www.w3.org/2000/svg"><g><g><g><g><g><line x1="51.5625" y1="177" x2="46.5625" y2="177" style="visibility: inherit;" fill="rgb(0, 0, 0)" stroke="rgb(204, 204, 204)" stroke-width="1px"></line><line x1="51.5625" y1="159.3" x2="46.5625" y2="159.3" style="visibility: inherit;" fill="rgb(0, 0, 0)" stroke="rgb(204, 204, 204)" stroke-width="1px"></line><line x1="51.5625" y1="141.6" x2="46.5625" y2="141.6" style="visibility: inherit;" fill="rgb(0, 0, 0)" stroke="rgb(204, 204, 204)" stroke-width="1px"></line><line x1="51.5625" y1="123.9" x2="46.5625" y2="123.9" style="visibility: inherit;" fill="rgb(0, 0, 0)" stroke="rgb(204, 204, 204)" stroke-width="1px"></line><line x1="51.5625" y1="106.20000000000002" x2="46.5625" y2="106.20000000000002" style="visibility: inherit;" fill="rgb(0, 0, 0)" stroke="rgb(204, 204, 204)" stroke-width="1px"></line><line x1="51.5625" y1="88.5" x2="46.5625" y2="88.5" style="visibility: inherit;" fill="rgb(0, 0, 0)" stroke="rgb(204, 204, 204)" stroke-width="1px"></line><line x1="51.5625" y1="70.8" x2="46.5625" y2="70.8" style="visibility: inherit;" fill="rgb(0, 0, 0)" stroke="rgb(204, 204, 204)" stroke-width="1px"></line><line x1="51.5625" y1="53.10000000000001" x2="46.5625" y2="53.10000000000001" style="visibility: inherit;" fill="rgb(0, 0, 0)" stroke="rgb(204, 204, 204)" stroke-width="1px"></line><line x1="51.5625" y1="35.40000000000001" x2="46.5625" y2="35.40000000000001" style="visibility: inherit;" fill="rgb(0, 0, 0)" stroke="rgb(204, 204, 204)" stroke-width="1px"></line><line x1="51.5625" y1="17.700000000000017" x2="46.5625" y2="17.700000000000017" style="visibility: inherit;" fill="rgb(0, 0, 0)" stroke="rgb(204, 204, 204)" stroke-width="1px"></line><line x1="51.5625" y1="0" x2="46.5625" y2="0" style="visibility: inherit;" fill="rgb(0, 0, 0)" stroke="rgb(204, 204, 204)" stroke-width="1px"></line></g><g transform="translate(41.5625, 0)"><text x="0" y="177" dx="0em" dy="0.3em" style="text-anchor: end; visibility: hidden; font-family: Roboto, sans-serif; font-size: 12px; font-weight: 200;" fill="rgb(33, 33, 33)" stroke="none" stroke-width="1px">-0.7</text><text x="0" y="159.3" dx="0em" dy="0.3em" style="text-anchor: end; visibility: inherit; font-family: Roboto, sans-serif; font-size: 12px; font-weight: 200;" fill="rgb(33, 33, 33)" stroke="none" stroke-width="1px">-0.6</text><text x="0" y="141.6" dx="0em" dy="0.3em" style="text-anchor: end; visibility: hidden; font-family: Roboto, sans-serif; font-size: 12px; font-weight: 200;" fill="rgb(33, 33, 33)" stroke="none" stroke-width="1px">-0.5</text><text x="0" y="123.9" dx="0em" dy="0.3em" style="text-anchor: end; visibility: inherit; font-family: Roboto, sans-serif; font-size: 12px; font-weight: 200;" fill="rgb(33, 33, 33)" stroke="none" stroke-width="1px">-0.4</text><text x="0" y="106.20000000000002" dx="0em" dy="0.3em" style="text-anchor: end; visibility: hidden; font-family: Roboto, sans-serif; font-size: 12px; font-weight: 200;" fill="rgb(33, 33, 33)" stroke="none" stroke-width="1px">-0.3</text><text x="0" y="88.5" dx="0em" dy="0.3em" style="text-anchor: end; visibility: inherit; font-family: Roboto, sans-serif; font-size: 12px; font-weight: 200;" fill="rgb(33, 33, 33)" stroke="none" stroke-width="1px">-0.2</text><text x="0" y="70.8" dx="0em" dy="0.3em" style="text-anchor: end; visibility: hidden; font-family: Roboto, sans-serif; font-size: 12px; font-weight: 200;" fill="rgb(33, 33, 33)" stroke="none" stroke-width="1px">-0.1</text><text x="0" y="53.10000000000001" dx="0em" dy="0.3em" style="text-anchor: end; visibility: inherit; font-family: Roboto, sans-serif; font-size: 12px; font-weight: 200;" fill="rgb(33, 33, 33)" stroke="none" stroke-width="1px">0</text><text x="0" y="35.40000000000001" dx="0em" dy="0.3em" style="text-anchor: end; visibility: hidden; font-family: Roboto, sans-serif; font-size: 12px; font-weight: 200;" fill="rgb(33, 33, 33)" stroke="none" stroke-width="1px">0.1</text><text x="0" y="17.700000000000017" dx="0em" dy="0.3em" style="text-anchor: end; visibility: inherit; font-family: Roboto, sans-serif; font-size: 12px; font-weight: 200;" fill="rgb(33, 33, 33)" stroke="none" stroke-width="1px">0.2</text><text x="0" y="0" dx="0em" dy="0.3em" style="text-anchor: end; visibility: hidden; font-family: Roboto, sans-serif; font-size: 12px; font-weight: 200;" fill="rgb(33, 33, 33)" stroke="none" stroke-width="1px">0.3</text></g><line x1="51.5625" y1="0" x2="51.5625" y2="177" fill="rgb(0, 0, 0)" stroke="rgb(204, 204, 204)" stroke-width="1px"></line></g></g><g transform="translate(51, 0)" clip-path="url(#clip_0)"><clipPath id="clip_0"><rect width="278" height="177"></rect></clipPath><g><g><g><line x1="0" y1="0" x2="0" y2="177" fill="rgb(0, 0, 0)" stroke="rgb(66, 66, 66)" stroke-width="1px" opacity="0.25"></line><line x1="23.203125" y1="0" x2="23.203125" y2="177" fill="rgb(0, 0, 0)" stroke="rgb(66, 66, 66)" stroke-width="1px" opacity="0.25"></line><line x1="46.40625" y1="0" x2="46.40625" y2="177" fill="rgb(0, 0, 0)" stroke="rgb(66, 66, 66)" stroke-width="1px" opacity="0.25"></line><line x1="69.609375" y1="0" x2="69.609375" y2="177" fill="rgb(0, 0, 0)" stroke="rgb(66, 66, 66)" stroke-width="1px" opacity="0.25"></line><line x1="92.8125" y1="0" x2="92.8125" y2="177" fill="rgb(0, 0, 0)" stroke="rgb(66, 66, 66)" stroke-width="1px" opacity="0.25"></line><line x1="116.015625" y1="0" x2="116.015625" y2="177" fill="rgb(0, 0, 0)" stroke="rgb(66, 66, 66)" stroke-width="1px" opacity="0.25"></line><line x1="139.21875" y1="0" x2="139.21875" y2="177" fill="rgb(0, 0, 0)" stroke="rgb(66, 66, 66)" stroke-width="1px" opacity="0.25"></line><line x1="162.421875" y1="0" x2="162.421875" y2="177" fill="rgb(0, 0, 0)" stroke="rgb(66, 66, 66)" stroke-width="1px" opacity="0.25"></line><line x1="185.625" y1="0" x2="185.625" y2="177" fill="rgb(0, 0, 0)" stroke="rgb(66, 66, 66)" stroke-width="1px" opacity="0.25"></line><line x1="208.828125" y1="0" x2="208.828125" y2="177" fill="rgb(0, 0, 0)" stroke="rgb(66, 66, 66)" stroke-width="1px" opacity="0.25"></line><line x1="232.03125" y1="0" x2="232.03125" y2="177" fill="rgb(0, 0, 0)" stroke="rgb(66, 66, 66)" stroke-width="1px" opacity="0.25"></line><line x1="255.234375" y1="0" x2="255.234375" y2="177" fill="rgb(0, 0, 0)" stroke="rgb(66, 66, 66)" stroke-width="1px" opacity="0.25"></line><line x1="278.4375" y1="0" x2="278.4375" y2="177" fill="rgb(0, 0, 0)" stroke="rgb(66, 66, 66)" stroke-width="1px" opacity="0.25"></line></g><g><line x1="0" y1="177" x2="278.4375" y2="177" fill="rgb(0, 0, 0)" stroke="rgb(66, 66, 66)" stroke-width="1px" opacity="0.25"></line><line x1="0" y1="159.3" x2="278.4375" y2="159.3" fill="rgb(0, 0, 0)" stroke="rgb(66, 66, 66)" stroke-width="1px" opacity="0.25"></line><line x1="0" y1="141.6" x2="278.4375" y2="141.6" fill="rgb(0, 0, 0)" stroke="rgb(66, 66, 66)" stroke-width="1px" opacity="0.25"></line><line x1="0" y1="123.9" x2="278.4375" y2="123.9" fill="rgb(0, 0, 0)" stroke="rgb(66, 66, 66)" stroke-width="1px" opacity="0.25"></line><line x1="0" y1="106.20000000000002" x2="278.4375" y2="106.20000000000002" fill="rgb(0, 0, 0)" stroke="rgb(66, 66, 66)" stroke-width="1px" opacity="0.25"></line><line x1="0" y1="88.5" x2="278.4375" y2="88.5" fill="rgb(0, 0, 0)" stroke="rgb(66, 66, 66)" stroke-width="1px" opacity="0.25"></line><line x1="0" y1="70.8" x2="278.4375" y2="70.8" fill="rgb(0, 0, 0)" stroke="rgb(66, 66, 66)" stroke-width="1px" opacity="0.25"></line><line x1="0" y1="53.10000000000001" x2="278.4375" y2="53.10000000000001" fill="rgb(0, 0, 0)" stroke="rgb(66, 66, 66)" stroke-width="1px" opacity="0.25"></line><line x1="0" y1="35.40000000000001" x2="278.4375" y2="35.40000000000001" fill="rgb(0, 0, 0)" stroke="rgb(66, 66, 66)" stroke-width="1px" opacity="0.25"></line><line x1="0" y1="17.700000000000017" x2="278.4375" y2="17.700000000000017" fill="rgb(0, 0, 0)" stroke="rgb(66, 66, 66)" stroke-width="1px" opacity="0.25"></line><line x1="0" y1="0" x2="278.4375" y2="0" fill="rgb(0, 0, 0)" stroke="rgb(66, 66, 66)" stroke-width="1px" opacity="0.25"></line></g></g></g><g><g><line x1="0" y1="53.10000000000001" x2="278.4375" y2="53.10000000000001" fill="rgb(0, 0, 0)" stroke="rgb(153, 153, 153)" stroke-width="1.5px"></line></g></g><g><g><line x1="23.203125" y1="0" x2="23.203125" y2="177" fill="rgb(0, 0, 0)" stroke="rgb(153, 153, 153)" stroke-width="1.5px"></line></g></g><g><g><g><g><g><path stroke="rgb(0, 153, 136)" stroke-width="2px" d="M24.36328125,41.82346246987582L25.523437499999996,21.002094416320332L26.683593750000004,-3.9586422628589846L35.96484375000001,-5.183871724113305L37.125,7.782843442228481L38.28515625,32.32325185965236L39.4453125,38.436532694725386L40.60546875,36.56038913471891L41.765625,33.86453230689575L42.92578125,39.98868887531311L44.0859375,60.78903332686469L45.24609375,69.25253676832402L46.40625,65.38413013990528L47.56640625,70.00743381387471L48.7265625,75.59131260878176L49.88671875,84.56136184457695L51.04687499999999,82.3683570887034L52.20703125,64.48356816455781L53.36718750000001,63.408986083722674L54.52734375,69.05905625239394L55.6875,65.55422010204074L56.84765625,78.70310004160658L58.0078125,72.24516160907841L59.16796875,61.11105669409619L60.328125,65.8239228883957L61.48828125,71.56581192876065L62.6484375,85.02743044705649L63.80859375,82.46088632591776L64.96875,71.36569905201945L66.12890625,74.56578055284938L67.2890625,86.35300179258562L68.44921875,91.823998307375L69.609375,92.9931123610288L70.76953125,100.79850279371053L71.92968750000001,108.32078927596636L73.08984375,115.50706313769217L74.25,117.80587060411881L75.41015625,112.88304557780467L76.5703125,117.67549331476319L77.73046875,117.96075270618017L78.890625,118.00972194296627L80.05078125,107.35453521421803L81.2109375,109.55376809741682L82.37109375,114.65637152148102L83.53125,111.05432799137041L84.69140624999999,112.3162202997824L85.8515625,121.57497718551858L87.01171875,122.65859605480782L88.171875,115.70477565730388L89.33203125000001,117.25533080202726L90.4921875,120.82733747711971L91.65234375,126.72615880246558L92.8125,115.517703523614L93.97265625,116.29512624262671L95.1328125,113.9564010447209L96.29296875,115.20289328723874L97.453125,117.76702961638435L98.61328125,113.73280975677005L99.7734375,116.28408095765826L100.93359375,116.54743402266858L102.09374999999999,123.03080148828207L103.25390625,127.02085367804855L104.4140625,128.24552506986305L105.57421875,116.42471507878625L106.73437500000001,119.42443940684956L107.89453125,119.1643547924646L109.0546875,111.82100915771167L110.21484375,118.29560911884627L111.375,132.5034524690644L112.53515625,136.67633270976626L113.6953125,127.52772721825879L114.85546875,133.48473085849903L116.015625,130.9855187658937L117.17578125,129.4336387606696L118.3359375,129.36964853864092L119.49609374999999,131.61696724524685L120.65625,134.29001867289637L121.81640625,134.37816554365207L122.9765625,125.1798604461434L124.13671875000001,122.09185614153158L125.296875,120.90730906806594L126.45703125,117.9881595764667L127.6171875,111.45458597710284L128.77734375,120.86957196081954L129.9375,130.24033825737874L131.09765625,132.26783850661238L132.2578125,135.21782627935866L133.41796875,134.75714694378604L134.578125,140.24432582913752L135.73828125,147.68280699282346L136.8984375,148.6209456922087L138.05859375,145.95408426530526L139.21875,139.68738408092344L140.37890625,138.79915782215042L141.5390625,139.6625511348339L142.69921875,145.41475582421285L143.85937500000003,148.72458012849322L145.01953125,144.4078843571257L146.1796875,149.77531562931892L147.33984375,149.92545927707135L148.5,144.24179888637752L149.66015625,146.6807427032386L150.8203125,140.94162838079507L151.98046874999997,126.56872008253124L153.140625,108.00837411785618L154.30078125,90.13218685192116L155.4609375,85.42925981333975L156.62109375,113.98451206709505L157.78125,122.45699115706266L158.94140625,130.8173952386418L160.1015625,138.58660930621818L161.26171875000003,143.9866848182092L162.421875,139.15962466356208L163.58203125,143.40652927933658L164.7421875,142.8779117503689L165.90234375,144.27429779365295L167.0625,147.3068836609256L168.22265625,150.61790415841995L169.38281249999997,148.60276103416413L170.54296875,143.9318129767941L171.703125,141.67844185779327L172.86328125,144.4733683226001L174.0234375,126.32531460213124L175.18359375,112.57735363983839L176.34375,129.34238837134703L177.50390625,138.3739800233238L178.66406250000003,132.04350382778017L179.82421875,134.05927345798895L180.984375,141.82530990862094L182.14453125,147.62447062742334L183.3046875,150.73619610673L184.46484375,149.2868955940297L185.625,148.20217308254493L186.78515624999997,151.7588224731458L187.9453125,153.3942049186713L189.10546875,152.92642869558367L190.265625,153.85484707160012L191.42578125,158.7750005295039L192.5859375,154.33870187054876L193.74609375,157.0957900000155L194.90625,159.45639342429936L196.06640625000003,160.20262502612024L197.2265625,152.64666069836096L198.38671875,150.3807235305045L199.546875,142.7836139651405L200.70703125,150.83234895330008L201.8671875,152.40971266558438L203.02734375,156.111725106491L204.18749999999997,154.54672911298937L205.34765625,158.08278244799706L206.5078125,156.7011105600314L207.66796875,150.97316655235076L208.828125,150.0305645779599L209.98828125,153.1173535027022L211.1484375,151.25231011698222L212.30859375,154.73321082984197L213.46875000000003,152.77352577643984L214.62890625,158.94022603729067L215.7890625,159.419171330823L216.94921875,154.89201738113834L218.109375,154.90202819940782L219.26953125,159.96122743307222L220.4296875,163.5261745712095L221.58984374999997,164.33794060453442L222.75,160.49985039584175L223.91015625,160.9308016198493L225.0703125,154.7787480780292L226.23046875,157.37602735503557L227.390625,157.06075098387421L228.55078125,159.98381420906395L229.7109375,156.6463781323831L230.87109375000003,160.83859301044546L232.03125,160.66511638976138L233.19140625,164.08250462818643L234.3515625,156.74779363179456L235.51171875,156.54864185702925L236.671875,155.46039702123466L237.83203125,149.68112152430447L238.99218749999997,155.97707153962568L240.15234375,157.0080685576127L241.3125,152.38370706241955L242.47265625,160.16019069751914L243.6328125,155.36623905698863L244.79296875,156.31352002521558L245.953125,164.86571862648034L247.11328125,166.74581295227063L248.27343750000003,165.35054414259918L249.43359375,165.8888817548132L250.59375,165.78507035371544L251.75390625,162.20507372914196L252.9140625,167.3397828891796L254.07421875,166.12131477966517L255.234375,166.99678533859358" style="fill: none;" fill="none"></path></g></g></g></g><g opacity="0.2"><g><g><g><path stroke="rgb(0, 153, 136)" stroke-width="2px" d="M24.36328125,41.82346246987582L25.523437499999996,10.591410389542588L26.683593750000004,-22.67919477224349L34.8046875,-4.753151053190224L35.96484375000001,11.35055569410325L37.125,20.74322720468045L38.28515625,56.857668966427454L39.4453125,44.54906727969647L40.60546875,34.68436008542777L41.765625,31.168757750093945L42.92578125,46.11275199651719L44.0859375,81.58921908438207L45.24609375,77.7160079240799L46.40625,61.515730889886626L47.56640625,74.6307330787182L48.7265625,81.17518874108792L49.88671875,93.53140894174577L51.04687499999999,80.17535259425641L52.20703125,46.59878030642868L53.36718750000001,62.334404034912595L54.52734375,74.70912633687259L55.6875,62.049383977800616L56.84765625,91.851979932189L58.0078125,65.78722318857909L59.16796875,49.97695178948344L60.328125,70.53678908050061L61.48828125,77.3077009677887L62.6484375,98.48904896378518L63.80859375,79.8943422049284L64.96875,60.27051177844406L66.12890625,77.76586205363274L67.2890625,98.14022303223611L68.44921875,97.29499482214452L69.609375,94.16222641468049L70.76953125,108.60389322638513L71.92968750000001,115.84307575821877L73.08984375,122.69333699941636L74.25,120.1046780705452L75.41015625,107.96022055149079L76.5703125,122.46794105172158L77.73046875,118.24601209759713L78.890625,118.05869117975236L80.05078125,96.69934848546983L81.2109375,111.75300098061562L82.37109375,119.7589749455452L83.53125,107.45228446125985L84.69140624999999,113.57811260819436L85.8515625,130.83373407125472L87.01171875,123.74221492409707L88.171875,108.75095525979997L89.33203125000001,118.80588594675065L90.4921875,124.39934415221215L91.65234375,132.62498012781143L92.8125,104.30924824476243L93.97265625,117.07254896163941L95.1328125,111.61767584681512L96.29296875,116.44938552975655L97.453125,120.33116594552995L98.61328125,109.69858989715577L99.7734375,118.83535215854646L100.93359375,116.81078708767892L102.09374999999999,129.51416895389556L103.25390625,131.010905867815L104.4140625,129.47019646167755L105.57421875,104.60390508770944L106.73437500000001,122.42416373491288L107.89453125,118.90427017807961L109.0546875,104.47766352295876L110.21484375,124.77020907998086L111.375,146.71129581928253L112.53515625,140.84921295046806L113.6953125,118.37912172675134L114.85546875,139.44173449873924L116.015625,128.48630667328834L117.17578125,127.88175875544549L118.3359375,129.30565831661224L119.49609374999999,133.8642859518528L120.65625,136.96307010054588L121.81640625,134.46631241440772L122.9765625,115.98155534863473L124.13671875000001,119.0038518369198L125.296875,119.7227619946003L126.45703125,115.06901008486749L127.6171875,104.92101237773896L128.77734375,130.2845579445362L129.9375,139.6111045539379L131.09765625,134.29533875584602L132.2578125,138.16781405210494L133.41796875,134.29646760821342L134.578125,145.73150471448898L135.73828125,155.1212881565094L136.8984375,149.55908439159393L138.05859375,143.2872228384018L139.21875,133.4206838965416L140.37890625,137.91093156337737L141.5390625,140.5259444475174L142.69921875,151.16696051359176L143.85937500000003,152.03440443277358L145.01953125,140.0911885857582L146.1796875,155.14274690151214L147.33984375,150.07560292482376L148.5,138.55813849568366L149.66015625,149.11968652009963L150.8203125,135.2025140583515L151.98046874999997,112.19581178426743L153.140625,89.44802815318108L154.30078125,72.25599958598615L155.4609375,80.72633277475835L156.62109375,142.53976432085037L157.78125,130.92947024703025L158.94140625,139.17779932022094L160.1015625,146.35582337379455L161.26171875000003,149.3867603302002L162.421875,134.33256450891494L163.58203125,147.65343389511108L164.7421875,142.3492942214012L165.90234375,145.67068383693694L167.0625,150.33946952819824L168.22265625,153.9289246559143L169.38281249999997,146.5876179099083L170.54296875,139.26086491942405L171.703125,139.4250707387924L172.86328125,147.26829478740692L174.0234375,108.17726088166238L175.18359375,98.82939267754556L176.34375,146.10742310285568L177.50390625,147.4055716753006L178.66406250000003,125.71302763223649L179.82421875,136.0750430881977L180.984375,149.59134635925292L182.14453125,153.42363134622573L183.3046875,153.84792158603668L184.46484375,147.83759508132934L185.625,147.11745057106017L186.78515624999997,155.31547186374664L187.9453125,155.02958736419677L189.10546875,152.45865247249603L190.265625,154.78326544761657L191.42578125,163.69515398740768L192.5859375,149.90240321159362L193.74609375,159.85287812948226L194.90625,161.81699684858322L196.06640625000003,160.94885662794113L197.2265625,145.09069637060165L198.38671875,148.114786362648L199.546875,135.18650439977645L200.70703125,158.88108394145965L201.8671875,153.98707637786865L203.02734375,159.8137375473976L204.18749999999997,152.98173311948776L205.34765625,161.61883578300476L206.5078125,155.31943867206573L207.66796875,145.2452225446701L208.828125,149.08796260356903L209.98828125,156.20414242744445L211.1484375,149.3872667312622L212.30859375,158.21411154270172L213.46875000000003,150.8138407230377L214.62890625,165.10692629814147L215.7890625,159.8981166243553L216.94921875,150.3648634314537L218.109375,154.9120390176773L219.26953125,165.0204266667366L220.4296875,167.09112170934677L221.58984374999997,165.14970663785934L222.75,156.66176018714904L223.91015625,161.3617528438568L225.0703125,148.6266945362091L226.23046875,159.97330663204193L227.390625,156.74547461271285L228.55078125,162.9068774342537L229.7109375,153.3089420557022L230.87109375000003,165.03080788850784L232.03125,160.4916397690773L233.19140625,167.49989286661148L234.3515625,149.41308263540267L235.51171875,156.34949008226394L236.671875,154.37215218544006L237.83203125,143.90184602737426L238.99218749999997,162.2730215549469L240.15234375,158.03906557559966L241.3125,147.7593455672264L242.47265625,167.9366743326187L243.6328125,150.57228741645812L244.79296875,157.26080099344253L245.953125,173.41791722774505L247.11328125,168.6259072780609L248.27343750000003,163.9552753329277L249.43359375,166.42721936702728L250.59375,165.68125895261764L251.75390625,158.62507710456848L252.9140625,172.47449204921722L254.07421875,164.90284667015075L255.234375,167.87225589752197" style="fill: none;" fill="none"></path></g></g></g></g></g></g><g transform="translate(51, 177)" clip-path="url(#clip_1)"><clipPath id="clip_1"><rect width="278" height="23"></rect></clipPath><g><g><line x1="0" y1="0" x2="0" y2="5" style="visibility: inherit;" fill="rgb(0, 0, 0)" stroke="rgb(204, 204, 204)" stroke-width="1px"></line><line x1="23.203125" y1="0" x2="23.203125" y2="5" style="visibility: inherit;" fill="rgb(0, 0, 0)" stroke="rgb(204, 204, 204)" stroke-width="1px"></line><line x1="46.40625" y1="0" x2="46.40625" y2="5" style="visibility: inherit;" fill="rgb(0, 0, 0)" stroke="rgb(204, 204, 204)" stroke-width="1px"></line><line x1="69.609375" y1="0" x2="69.609375" y2="5" style="visibility: inherit;" fill="rgb(0, 0, 0)" stroke="rgb(204, 204, 204)" stroke-width="1px"></line><line x1="92.8125" y1="0" x2="92.8125" y2="5" style="visibility: inherit;" fill="rgb(0, 0, 0)" stroke="rgb(204, 204, 204)" stroke-width="1px"></line><line x1="116.015625" y1="0" x2="116.015625" y2="5" style="visibility: inherit;" fill="rgb(0, 0, 0)" stroke="rgb(204, 204, 204)" stroke-width="1px"></line><line x1="139.21875" y1="0" x2="139.21875" y2="5" style="visibility: inherit;" fill="rgb(0, 0, 0)" stroke="rgb(204, 204, 204)" stroke-width="1px"></line><line x1="162.421875" y1="0" x2="162.421875" y2="5" style="visibility: inherit;" fill="rgb(0, 0, 0)" stroke="rgb(204, 204, 204)" stroke-width="1px"></line><line x1="185.625" y1="0" x2="185.625" y2="5" style="visibility: inherit;" fill="rgb(0, 0, 0)" stroke="rgb(204, 204, 204)" stroke-width="1px"></line><line x1="208.828125" y1="0" x2="208.828125" y2="5" style="visibility: inherit;" fill="rgb(0, 0, 0)" stroke="rgb(204, 204, 204)" stroke-width="1px"></line><line x1="232.03125" y1="0" x2="232.03125" y2="5" style="visibility: inherit;" fill="rgb(0, 0, 0)" stroke="rgb(204, 204, 204)" stroke-width="1px"></line><line x1="255.234375" y1="0" x2="255.234375" y2="5" style="visibility: inherit;" fill="rgb(0, 0, 0)" stroke="rgb(204, 204, 204)" stroke-width="1px"></line><line x1="278.4375" y1="0" x2="278.4375" y2="5" style="visibility: inherit;" fill="rgb(0, 0, 0)" stroke="rgb(204, 204, 204)" stroke-width="1px"></line></g><g transform="translate(0, 8)"><text x="0" y="0" dx="0em" dy="0.95em" style="text-anchor: middle; visibility: hidden; font-family: Roboto, sans-serif; font-size: 12px; font-weight: 200;" fill="rgb(33, 33, 33)" stroke="none" stroke-width="1px">-200k</text><text x="23.203125" y="0" dx="0em" dy="0.95em" style="text-anchor: middle; visibility: inherit; font-family: Roboto, sans-serif; font-size: 12px; font-weight: 200;" fill="rgb(33, 33, 33)" stroke="none" stroke-width="1px">0</text><text x="46.40625" y="0" dx="0em" dy="0.95em" style="text-anchor: middle; visibility: hidden; font-family: Roboto, sans-serif; font-size: 12px; font-weight: 200;" fill="rgb(33, 33, 33)" stroke="none" stroke-width="1px">200k</text><text x="69.609375" y="0" dx="0em" dy="0.95em" style="text-anchor: middle; visibility: inherit; font-family: Roboto, sans-serif; font-size: 12px; font-weight: 200;" fill="rgb(33, 33, 33)" stroke="none" stroke-width="1px">400k</text><text x="92.8125" y="0" dx="0em" dy="0.95em" style="text-anchor: middle; visibility: hidden; font-family: Roboto, sans-serif; font-size: 12px; font-weight: 200;" fill="rgb(33, 33, 33)" stroke="none" stroke-width="1px">600k</text><text x="116.015625" y="0" dx="0em" dy="0.95em" style="text-anchor: middle; visibility: inherit; font-family: Roboto, sans-serif; font-size: 12px; font-weight: 200;" fill="rgb(33, 33, 33)" stroke="none" stroke-width="1px">800k</text><text x="139.21875" y="0" dx="0em" dy="0.95em" style="text-anchor: middle; visibility: hidden; font-family: Roboto, sans-serif; font-size: 12px; font-weight: 200;" fill="rgb(33, 33, 33)" stroke="none" stroke-width="1px">1M</text><text x="162.421875" y="0" dx="0em" dy="0.95em" style="text-anchor: middle; visibility: inherit; font-family: Roboto, sans-serif; font-size: 12px; font-weight: 200;" fill="rgb(33, 33, 33)" stroke="none" stroke-width="1px">1.2M</text><text x="185.625" y="0" dx="0em" dy="0.95em" style="text-anchor: middle; visibility: hidden; font-family: Roboto, sans-serif; font-size: 12px; font-weight: 200;" fill="rgb(33, 33, 33)" stroke="none" stroke-width="1px">1.4M</text><text x="208.828125" y="0" dx="0em" dy="0.95em" style="text-anchor: middle; visibility: inherit; font-family: Roboto, sans-serif; font-size: 12px; font-weight: 200;" fill="rgb(33, 33, 33)" stroke="none" stroke-width="1px">1.6M</text><text x="232.03125" y="0" dx="0em" dy="0.95em" style="text-anchor: middle; visibility: hidden; font-family: Roboto, sans-serif; font-size: 12px; font-weight: 200;" fill="rgb(33, 33, 33)" stroke="none" stroke-width="1px">1.8M</text><text x="255.234375" y="0" dx="0em" dy="0.95em" style="text-anchor: middle; visibility: inherit; font-family: Roboto, sans-serif; font-size: 12px; font-weight: 200;" fill="rgb(33, 33, 33)" stroke="none" stroke-width="1px">2M</text><text x="278.4375" y="0" dx="0em" dy="0.95em" style="text-anchor: middle; visibility: hidden; font-family: Roboto, sans-serif; font-size: 12px; font-weight: 200;" fill="rgb(33, 33, 33)" stroke="none" stroke-width="1px">2.2M</text></g><line x1="0" y1="0" x2="278.4375" y2="0" fill="rgb(0, 0, 0)" stroke="rgb(204, 204, 204)" stroke-width="1px"></line></g></g></g></g></svg>