<svg viewBox="0 0 330 200" xmlns="http://www.w3.org/2000/svg"><g><g><g><g><g><line x1="72.34375" y1="177" x2="67.34375" y2="177" style="visibility: inherit;" fill="rgb(0, 0, 0)" stroke="rgb(204, 204, 204)" stroke-width="1px"></line><line x1="72.34375" y1="164.35714285714283" x2="67.34375" y2="164.35714285714283" style="visibility: inherit;" fill="rgb(0, 0, 0)" stroke="rgb(204, 204, 204)" stroke-width="1px"></line><line x1="72.34375" y1="151.71428571428572" x2="67.34375" y2="151.71428571428572" style="visibility: inherit;" fill="rgb(0, 0, 0)" stroke="rgb(204, 204, 204)" stroke-width="1px"></line><line x1="72.34375" y1="139.07142857142856" x2="67.34375" y2="139.07142857142856" style="visibility: inherit;" fill="rgb(0, 0, 0)" stroke="rgb(204, 204, 204)" stroke-width="1px"></line><line x1="72.34375" y1="126.42857142857143" x2="67.34375" y2="126.42857142857143" style="visibility: inherit;" fill="rgb(0, 0, 0)" stroke="rgb(204, 204, 204)" stroke-width="1px"></line><line x1="72.34375" y1="113.78571428571428" x2="67.34375" y2="113.78571428571428" style="visibility: inherit;" fill="rgb(0, 0, 0)" stroke="rgb(204, 204, 204)" stroke-width="1px"></line><line x1="72.34375" y1="101.14285714285714" x2="67.34375" y2="101.14285714285714" style="visibility: inherit;" fill="rgb(0, 0, 0)" stroke="rgb(204, 204, 204)" stroke-width="1px"></line><line x1="72.34375" y1="88.49999999999999" x2="67.34375" y2="88.49999999999999" style="visibility: inherit;" fill="rgb(0, 0, 0)" stroke="rgb(204, 204, 204)" stroke-width="1px"></line><line x1="72.34375" y1="75.85714285714285" x2="67.34375" y2="75.85714285714285" style="visibility: inherit;" fill="rgb(0, 0, 0)" stroke="rgb(204, 204, 204)" stroke-width="1px"></line><line x1="72.34375" y1="63.21428571428572" x2="67.34375" y2="63.21428571428572" style="visibility: inherit;" fill="rgb(0, 0, 0)" stroke="rgb(204, 204, 204)" stroke-width="1px"></line><line x1="72.34375" y1="50.57142857142857" x2="67.34375" y2="50.57142857142857" style="visibility: inherit;" fill="rgb(0, 0, 0)" stroke="rgb(204, 204, 204)" stroke-width="1px"></line><line x1="72.34375" y1="37.92857142857141" x2="67.34375" y2="37.92857142857141" style="visibility: inherit;" fill="rgb(0, 0, 0)" stroke="rgb(204, 204, 204)" stroke-width="1px"></line><line x1="72.34375" y1="25.285714285714256" x2="67.34375" y2="25.285714285714256" style="visibility: inherit;" fill="rgb(0, 0, 0)" stroke="rgb(204, 204, 204)" stroke-width="1px"></line><line x1="72.34375" y1="12.642857142857157" x2="67.34375" y2="12.642857142857157" style="visibility: inherit;" fill="rgb(0, 0, 0)" stroke="rgb(204, 204, 204)" stroke-width="1px"></line><line x1="72.34375" y1="0" x2="67.34375" y2="0" style="visibility: inherit;" fill="rgb(0, 0, 0)" stroke="rgb(204, 204, 204)" stroke-width="1px"></line></g><g transform="translate(62.34375, 0)"><text x="0" y="177" dx="0em" dy="0.3em" style="text-anchor: end; visibility: hidden; font-family: Roboto, sans-serif; font-size: 12px; font-weight: 200;" fill="rgb(33, 33, 33)" stroke="none" stroke-width="1px">4.5e-3</text><text x="0" y="164.35714285714283" dx="0em" dy="0.3em" style="text-anchor: end; visibility: inherit; font-family: Roboto, sans-serif; font-size: 12px; font-weight: 200;" fill="rgb(33, 33, 33)" stroke="none" stroke-width="1px">5e-3</text><text x="0" y="151.71428571428572" dx="0em" dy="0.3em" style="text-anchor: end; visibility: hidden; font-family: Roboto, sans-serif; font-size: 12px; font-weight: 200;" fill="rgb(33, 33, 33)" stroke="none" stroke-width="1px">5.5e-3</text><text x="0" y="139.07142857142856" dx="0em" dy="0.3em" style="text-anchor: end; visibility: inherit; font-family: Roboto, sans-serif; font-size: 12px; font-weight: 200;" fill="rgb(33, 33, 33)" stroke="none" stroke-width="1px">6e-3</text><text x="0" y="126.42857142857143" dx="0em" dy="0.3em" style="text-anchor: end; visibility: hidden; font-family: Roboto, sans-serif; font-size: 12px; font-weight: 200;" fill="rgb(33, 33, 33)" stroke="none" stroke-width="1px">6.5e-3</text><text x="0" y="113.78571428571428" dx="0em" dy="0.3em" style="text-anchor: end; visibility: inherit; font-family: Roboto, sans-serif; font-size: 12px; font-weight: 200;" fill="rgb(33, 33, 33)" stroke="none" stroke-width="1px">7e-3</text><text x="0" y="101.14285714285714" dx="0em" dy="0.3em" style="text-anchor: end; visibility: hidden; font-family: Roboto, sans-serif; font-size: 12px; font-weight: 200;" fill="rgb(33, 33, 33)" stroke="none" stroke-width="1px">7.5e-3</text><text x="0" y="88.49999999999999" dx="0em" dy="0.3em" style="text-anchor: end; visibility: inherit; font-family: Roboto, sans-serif; font-size: 12px; font-weight: 200;" fill="rgb(33, 33, 33)" stroke="none" stroke-width="1px">8e-3</text><text x="0" y="75.85714285714285" dx="0em" dy="0.3em" style="text-anchor: end; visibility: hidden; font-family: Roboto, sans-serif; font-size: 12px; font-weight: 200;" fill="rgb(33, 33, 33)" stroke="none" stroke-width="1px">8.5e-3</text><text x="0" y="63.21428571428572" dx="0em" dy="0.3em" style="text-anchor: end; visibility: inherit; font-family: Roboto, sans-serif; font-size: 12px; font-weight: 200;" fill="rgb(33, 33, 33)" stroke="none" stroke-width="1px">9e-3</text><text x="0" y="50.57142857142857" dx="0em" dy="0.3em" style="text-anchor: end; visibility: hidden; font-family: Roboto, sans-serif; font-size: 12px; font-weight: 200;" fill="rgb(33, 33, 33)" stroke="none" stroke-width="1px">9.5e-3</text><text x="0" y="37.92857142857141" dx="0em" dy="0.3em" style="text-anchor: end; visibility: inherit; font-family: Roboto, sans-serif; font-size: 12px; font-weight: 200;" fill="rgb(33, 33, 33)" stroke="none" stroke-width="1px">0.01</text><text x="0" y="25.285714285714256" dx="0em" dy="0.3em" style="text-anchor: end; visibility: hidden; font-family: Roboto, sans-serif; font-size: 12px; font-weight: 200;" fill="rgb(33, 33, 33)" stroke="none" stroke-width="1px">0.0105</text><text x="0" y="12.642857142857157" dx="0em" dy="0.3em" style="text-anchor: end; visibility: inherit; font-family: Roboto, sans-serif; font-size: 12px; font-weight: 200;" fill="rgb(33, 33, 33)" stroke="none" stroke-width="1px">0.011</text><text x="0" y="0" dx="0em" dy="0.3em" style="text-anchor: end; visibility: hidden; font-family: Roboto, sans-serif; font-size: 12px; font-weight: 200;" fill="rgb(33, 33, 33)" stroke="none" stroke-width="1px">0.0115</text></g><line x1="72.34375" y1="0" x2="72.34375" y2="177" fill="rgb(0, 0, 0)" stroke="rgb(204, 204, 204)" stroke-width="1px"></line></g></g><g transform="translate(72, 0)" clip-path="url(#clip_0)"><clipPath id="clip_0"><rect width="257" height="177"></rect></clipPath><g><g><g><line x1="0" y1="0" x2="0" y2="177" fill="rgb(0, 0, 0)" stroke="rgb(66, 66, 66)" stroke-width="1px" opacity="0.25"></line><line x1="21.471354166666664" y1="0" x2="21.471354166666664" y2="177" fill="rgb(0, 0, 0)" stroke="rgb(66, 66, 66)" stroke-width="1px" opacity="0.25"></line><line x1="42.94270833333333" y1="0" x2="42.94270833333333" y2="177" fill="rgb(0, 0, 0)" stroke="rgb(66, 66, 66)" stroke-width="1px" opacity="0.25"></line><line x1="64.4140625" y1="0" x2="64.4140625" y2="177" fill="rgb(0, 0, 0)" stroke="rgb(66, 66, 66)" stroke-width="1px" opacity="0.25"></line><line x1="85.88541666666666" y1="0" x2="85.88541666666666" y2="177" fill="rgb(0, 0, 0)" stroke="rgb(66, 66, 66)" stroke-width="1px" opacity="0.25"></line><line x1="107.35677083333334" y1="0" x2="107.35677083333334" y2="177" fill="rgb(0, 0, 0)" stroke="rgb(66, 66, 66)" stroke-width="1px" opacity="0.25"></line><line x1="128.828125" y1="0" x2="128.828125" y2="177" fill="rgb(0, 0, 0)" stroke="rgb(66, 66, 66)" stroke-width="1px" opacity="0.25"></line><line x1="150.29947916666669" y1="0" x2="150.29947916666669" y2="177" fill="rgb(0, 0, 0)" stroke="rgb(66, 66, 66)" stroke-width="1px" opacity="0.25"></line><line x1="171.77083333333331" y1="0" x2="171.77083333333331" y2="177" fill="rgb(0, 0, 0)" stroke="rgb(66, 66, 66)" stroke-width="1px" opacity="0.25"></line><line x1="193.2421875" y1="0" x2="193.2421875" y2="177" fill="rgb(0, 0, 0)" stroke="rgb(66, 66, 66)" stroke-width="1px" opacity="0.25"></line><line x1="214.71354166666669" y1="0" x2="214.71354166666669" y2="177" fill="rgb(0, 0, 0)" stroke="rgb(66, 66, 66)" stroke-width="1px" opacity="0.25"></line><line x1="236.18489583333331" y1="0" x2="236.18489583333331" y2="177" fill="rgb(0, 0, 0)" stroke="rgb(66, 66, 66)" stroke-width="1px" opacity="0.25"></line><line x1="257.65625" y1="0" x2="257.65625" y2="177" fill="rgb(0, 0, 0)" stroke="rgb(66, 66, 66)" stroke-width="1px" opacity="0.25"></line></g><g><line x1="0" y1="177" x2="257.65625" y2="177" fill="rgb(0, 0, 0)" stroke="rgb(66, 66, 66)" stroke-width="1px" opacity="0.25"></line><line x1="0" y1="164.35714285714283" x2="257.65625" y2="164.35714285714283" fill="rgb(0, 0, 0)" stroke="rgb(66, 66, 66)" stroke-width="1px" opacity="0.25"></line><line x1="0" y1="151.71428571428572" x2="257.65625" y2="151.71428571428572" fill="rgb(0, 0, 0)" stroke="rgb(66, 66, 66)" stroke-width="1px" opacity="0.25"></line><line x1="0" y1="139.07142857142856" x2="257.65625" y2="139.07142857142856" fill="rgb(0, 0, 0)" stroke="rgb(66, 66, 66)" stroke-width="1px" opacity="0.25"></line><line x1="0" y1="126.42857142857143" x2="257.65625" y2="126.42857142857143" fill="rgb(0, 0, 0)" stroke="rgb(66, 66, 66)" stroke-width="1px" opacity="0.25"></line><line x1="0" y1="113.78571428571428" x2="257.65625" y2="113.78571428571428" fill="rgb(0, 0, 0)" stroke="rgb(66, 66, 66)" stroke-width="1px" opacity="0.25"></line><line x1="0" y1="101.14285714285714" x2="257.65625" y2="101.14285714285714" fill="rgb(0, 0, 0)" stroke="rgb(66, 66, 66)" stroke-width="1px" opacity="0.25"></line><line x1="0" y1="88.49999999999999" x2="257.65625" y2="88.49999999999999" fill="rgb(0, 0, 0)" stroke="rgb(66, 66, 66)" stroke-width="1px" opacity="0.25"></line><line x1="0" y1="75.85714285714285" x2="257.65625" y2="75.85714285714285" fill="rgb(0, 0, 0)" stroke="rgb(66, 66, 66)" stroke-width="1px" opacity="0.25"></line><line x1="0" y1="63.21428571428572" x2="257.65625" y2="63.21428571428572" fill="rgb(0, 0, 0)" stroke="rgb(66, 66, 66)" stroke-width="1px" opacity="0.25"></line><line x1="0" y1="50.57142857142857" x2="257.65625" y2="50.57142857142857" fill="rgb(0, 0, 0)" stroke="rgb(66, 66, 66)" stroke-width="1px" opacity="0.25"></line><line x1="0" y1="37.92857142857141" x2="257.65625" y2="37.92857142857141" fill="rgb(0, 0, 0)" stroke="rgb(66, 66, 66)" stroke-width="1px" opacity="0.25"></line><line x1="0" y1="25.285714285714256" x2="257.65625" y2="25.285714285714256" fill="rgb(0, 0, 0)" stroke="rgb(66, 66, 66)" stroke-width="1px" opacity="0.25"></line><line x1="0" y1="12.642857142857157" x2="257.65625" y2="12.642857142857157" fill="rgb(0, 0, 0)" stroke="rgb(66, 66, 66)" stroke-width="1px" opacity="0.25"></line><line x1="0" y1="0" x2="257.65625" y2="0" fill="rgb(0, 0, 0)" stroke="rgb(66, 66, 66)" stroke-width="1px" opacity="0.25"></line></g></g></g><g><g><line x1="0" y1="290.7857142857143" x2="257.65625" y2="290.7857142857143" fill="rgb(0, 0, 0)" stroke="rgb(153, 153, 153)" stroke-width="1.5px"></line></g></g><g><g><line x1="21.471354166666664" y1="0" x2="21.471354166666664" y2="177" fill="rgb(0, 0, 0)" stroke="rgb(153, 153, 153)" stroke-width="1.5px"></line></g></g><g><g><g><g><g><path stroke="rgb(0, 153, 136)" stroke-width="2px" d="M24.692057291666668,-218.50727834446087L25.765625,24.56296442236217L26.839192708333336,118.38858061891546L27.912760416666668,121.76352274174593L28.986328125,128.36275371818627L30.059895833333332,127.02156553548924L31.133463541666668,79.24039720369177L32.20703125,49.43268207181282L33.280598958333336,39.805377602053056L34.354166666666664,35.46849349367252L35.427734375,18.32151806806308L36.501302083333336,-1.8437565547926718L37.57486979166667,32.856418541209536L38.6484375,69.86271646741335L39.722005208333336,64.59911036868915L40.795572916666664,12.859140253195335L41.869140625,10.629910896485693L42.94270833333333,16.03491315902625L44.016276041666664,1.192267829904841L45.08984375,-2.0397006793962413L46.163411458333336,5.594766894195956L47.236979166666664,-4.038784480710966L48.310546875,34.94549592634448L49.384114583333336,32.04118605817522L50.457682291666664,53.702905249030955L51.53125,58.563358820811274L52.604817708333336,51.46698624375091L53.67838541666667,70.42948581102111L54.751953125,112.81296949803297L55.825520833333336,105.87020432612593L56.899088541666664,74.65725596994743L57.97265625,63.768348998690534L59.04622395833333,84.82447960629996L60.119791666666664,101.1597492480523L61.193359375,93.49862422674802L62.266927083333336,93.21522406588556L63.340494791666664,75.93739150777431L64.4140625,66.94068111901007L65.48763020833333,39.47748284145059L66.56119791666667,37.580418119988536L67.634765625,56.35326818988164L68.70833333333333,54.205175061706896L69.78190104166666,55.75618829970489L70.85546875,47.95980194194281L71.92903645833333,51.66689128633212L73.00260416666667,47.92409665505876L74.076171875,64.7261678536347L75.14973958333334,59.56640989079558L76.22330729166667,58.92323709152387L77.296875,63.13243776070627L78.37044270833333,59.91512888744675L79.44401041666667,52.581851117154294L80.517578125,74.5841931848925L81.59114583333333,76.89457155068297L82.66471354166667,71.57691004950166L83.73828125,72.90363274660035L84.81184895833333,77.14601845366914L85.88541666666666,95.03937075137176L86.958984375,84.05112660548059L88.03255208333333,88.90916075732862L89.10611979166667,85.64744762312503L90.1796875,65.39977003784259L91.25325520833334,84.86419243201186L92.32682291666667,74.67609558598059L93.400390625,95.93221101762354L94.47395833333333,81.5138803808891L95.54752604166667,80.01254784757906L96.62109375,81.95306741454424L97.69466145833333,93.80694078737962L98.76822916666667,86.26509635352045L99.841796875,95.14809556805353L100.91536458333333,103.78856285405854L101.98893229166666,101.61628226728232L103.0625,94.27927152655447L104.13606770833333,93.72209249145463L105.20963541666667,111.15867388688152L106.283203125,94.7176580264798L107.35677083333334,111.99817257750544L108.43033854166667,107.06157576613809L109.50390625,114.24461657421736L110.57747395833333,113.53405343036471L111.65104166666667,105.26871026407348L112.724609375,100.4542552756622L113.79817708333333,114.94316491762429L114.87174479166667,110.64268696101111L115.9453125,119.27962188877959L117.01888020833333,120.53824147357336L118.09244791666666,124.5454010675468L119.166015625,105.08460761337639L120.23958333333333,101.68833348925207L121.31315104166667,107.05559687515246L122.38671875,113.43192470519033L123.46028645833334,122.17126652874266L124.53385416666667,129.36048972638164L125.607421875,124.67318677465614L126.68098958333333,115.48453140679108L127.75455729166667,124.0092033339127L128.828125,132.7816089958349L129.90169270833334,126.1712741445948L130.97526041666666,118.70527689923591L132.048828125,115.26864441148102L133.12239583333334,108.07245878334672L134.19596354166669,121.08760708805764L135.26953125,116.54727107324267L136.34309895833334,119.38553328245625L137.41666666666666,113.91793727697944L138.490234375,113.00958157907576L139.56380208333331,121.79602799214392L140.63736979166666,162.7963237709018L141.7109375,185.22827373058126L142.78450520833334,195.48345195494855L143.85807291666666,163.66207889676755L144.931640625,140.10562884433259L146.00520833333334,126.34160353189232L147.07877604166666,122.51604767622243L148.15234375,123.58528177785861L149.22591145833334,110.72978366578683L150.29947916666669,116.71759147882138L151.373046875,110.02881813152398L152.44661458333334,110.13640222962866L153.52018229166666,101.89423265626614L154.59375,110.87213658487805L155.66731770833331,110.07017591861535L156.74088541666666,112.03935343000401L157.814453125,114.13639256557663L158.88802083333334,125.46052182485722L159.96158854166666,117.91492426910956L161.03515625,147.97577563159362L162.10872395833334,165.08287190681685L163.18229166666666,139.7498784985052L164.255859375,132.61922920198202L165.32942708333334,142.86674473818337L166.40299479166669,143.6190902415687L167.4765625,120.88094163901691L168.55013020833334,115.22707100879195L169.62369791666666,116.58300163664086L170.697265625,116.7607298802752L171.77083333333331,115.73590140420718L172.84440104166666,123.81011014034327L173.91796875,135.01013201356278L174.99153645833334,137.83804221471678L176.06510416666666,138.23769393254156L177.138671875,132.92476233179855L178.21223958333334,142.18676602989322L179.28580729166666,145.10281821654254L180.359375,139.9971233180322L181.43294270833334,140.280865969389L182.50651041666669,151.08074407757786L183.580078125,148.94044337873675L184.65364583333334,154.3015794521181L185.72721354166666,147.651530125111L186.80078125,141.39585414252733L187.87434895833331,131.18998746808396L188.94791666666666,142.52911054353783L190.021484375,141.7302486386158L191.09505208333334,143.5648025330426L192.16861979166666,149.61428257039367L193.2421875,144.81811810132524L194.31575520833334,135.28068518003653L195.38932291666666,141.0009749800682L196.462890625,143.59113468776172L197.53645833333334,150.65651735164948L198.61002604166669,147.9142768855695L199.68359375,138.36846141166367L200.75716145833334,136.92644057087824L201.83072916666666,142.65606809266555L202.904296875,142.4076598111945L203.97786458333331,150.7828054705305L205.05143229166666,152.36346901050848L206.125,150.41669409164467L207.19856770833334,144.0116230311995L208.27213541666666,147.11135398244247L209.345703125,139.7396686051521L210.41927083333334,150.55844023589316L211.49283854166666,147.9868814957448L212.56640625,152.89803911726855L213.63997395833334,152.3775343987156L214.71354166666669,157.49412554218418L215.787109375,156.88434719870722L216.86067708333334,164.90992505098853L217.93424479166666,162.2974354901259L219.0078125,163.184776978556L220.08138020833331,168.33484085183025L221.15494791666666,160.97150468034388L222.228515625,164.20707752425744L223.30208333333334,168.24728325636255L224.37565104166666,168.8657933113777L225.44921875,155.9545283140322L226.52278645833334,158.77134087514L227.59635416666666,159.10482235674544L228.669921875,157.44705687168553L229.74348958333334,160.16517752208398L230.81705729166669,155.23498816208937L231.890625,146.98055117899696L232.96419270833334,153.27195051925995L234.03776041666666,148.3122483416138L235.111328125,141.1831343774722L236.18489583333331,145.9848155881896" style="fill: none;" fill="none"></path></g></g></g></g><g opacity="0.2"><g><g><g><path stroke="rgb(0, 153, 136)" stroke-width="2px" d="M26.839192708333336,206.35009580318416L27.912760416666668,125.03299792323793L28.986328125,134.85887171061975L30.059895833333332,125.69085538546953L31.133463541666668,31.645874060690403L32.20703125,19.68318513355085L33.280598958333336,30.187474796814566L34.354166666666664,31.13372700448546L35.427734375,1.1787289157509804L36.501302083333336,-22.006569596273547L37.57486979166667,67.55447570660284L38.6484375,106.86788505102906L39.722005208333336,59.33558458622012L40.795572916666664,-38.880435117653434L41.869140625,8.400690043611174L42.94270833333333,21.439905112343165L44.016276041666664,-13.650363344166983L45.08984375,-5.271667647574652L46.163411458333336,13.229232647589269L47.236979166666664,-13.672334707209048L48.310546875,73.92977400975568L49.384114583333336,29.13687627656118L50.457682291666664,75.36462411710194L51.53125,63.42381235637835L52.604817708333336,44.37061369312659L53.67838541666667,89.39198534297091L54.751953125,155.1964531455721L55.825520833333336,98.9274391574519L56.899088541666664,43.44430762103626L57.97265625,52.879442028701305L59.04622395833333,105.88061021268368L60.119791666666664,117.49501888932926L61.193359375,85.83749920555523L62.266927083333336,92.9318239050252L63.340494791666664,58.65955894972596L64.4140625,57.94397073026214L65.48763020833333,12.014284563916062L66.56119791666667,35.683353398527416L67.634765625,75.12611825977052L68.70833333333333,52.057081933532444L69.78190104166666,57.30720153770277L70.85546875,40.16341558418104L71.92903645833333,55.37398063072136L73.00260416666667,44.18130202378545L74.076171875,81.52823905221054L75.14973958333334,54.406651927956496L76.22330729166667,58.280064292252064L77.296875,67.34163842988865L78.37044270833333,56.69782001418725L79.44401041666667,45.248573346861754L80.517578125,96.58653525263071L81.59114583333333,79.20494991647345L82.66471354166667,66.25924854832036L83.73828125,74.23035544369901L84.81184895833333,81.38840416073799L85.88541666666666,112.93272304907441L86.958984375,73.0628824595894L88.03255208333333,93.76719490917665L89.10611979166667,82.3857344889215L90.1796875,45.152092452560154L91.25325520833334,104.32861482618111L92.32682291666667,64.48799873994929L93.400390625,117.1883264492665L94.47395833333333,67.09554974415472L95.54752604166667,78.51121531426907L96.62109375,83.89358698150942L97.69466145833333,105.660814160215L98.76822916666667,78.72325191966125L99.841796875,104.0310947825866L100.91536458333333,112.42903014006359L101.98893229166666,99.44400168050612L103.0625,86.9422607858266L104.13606770833333,93.16491345635481L105.20963541666667,128.59525528230836L106.283203125,78.27664216607809L107.35677083333334,129.27868712853106L108.43033854166667,102.12497895477074L109.50390625,121.42765738229666L110.57747395833333,112.82349028651203L111.65104166666667,97.00336709778223L112.724609375,95.63980028725095L113.79817708333333,129.43207455958637L114.87174479166667,106.3422090043979L115.9453125,127.91655681654811L117.01888020833333,121.79686105836714L118.09244791666666,128.55256066152026L119.166015625,85.62381415920598L120.23958333333333,98.29205936512776L121.31315104166667,112.42286026105285L122.38671875,119.8082525352282L123.46028645833334,130.910608352295L124.53385416666667,136.5497129240206L125.607421875,119.9858838229307L126.68098958333333,106.29587603892598L127.75455729166667,132.53387526103427L128.828125,141.5540146577571L129.90169270833334,119.56093929335475L130.97526041666666,111.23927965387702L132.048828125,111.83201192372611L133.12239583333334,100.8762731552124L134.19596354166669,134.10275539276853L135.26953125,112.0069350584277L136.34309895833334,122.22379549166985L137.41666666666666,108.45034127150262L138.490234375,112.10122588117207L139.56380208333331,130.58247440521205L140.63736979166666,203.79661954965974L142.78450520833334,205.7386301793158L143.85807291666666,131.8407058385866L144.931640625,116.54917879189763L146.00520833333334,112.57757821945208L147.07877604166666,118.69049182055252L148.15234375,124.6545158794948L149.22591145833334,97.87428555371505L150.29947916666669,122.70539929185594L151.373046875,103.34004478422659L152.44661458333334,110.24398632773331L153.52018229166666,93.65206308290362L154.59375,119.85004051348992L155.66731770833331,109.2682152523526L156.74088541666666,114.00853094139269L157.814453125,116.23343170114926L158.88802083333334,136.7846510841378L159.96158854166666,110.36932671336191L161.03515625,178.03662699407764L162.10872395833334,182.1899681820401L163.18229166666666,114.41688509019357L164.255859375,125.48857990545886L165.32942708333334,153.1142602743847L166.40299479166669,144.371435744954L167.4765625,98.14279303646512L168.55013020833334,109.57320037856698L169.62369791666666,117.93893226448978L170.697265625,116.93845812390957L171.77083333333331,114.71107292813915L172.84440104166666,131.88431887647934L173.91796875,146.21015388678225L174.99153645833334,140.66595241587075L176.06510416666666,138.63734565036637L177.138671875,127.61183073105556L178.21223958333334,151.4487697279879L179.28580729166666,148.01887040319187L180.359375,134.89142841952187L181.43294270833334,140.5646086207458L182.50651041666669,161.8806221857667L183.580078125,146.80014267989566L184.65364583333334,159.6627155254994L185.72721354166666,141.00148079810396L186.80078125,135.14017815994364L187.87434895833331,120.98412079364061L188.94791666666666,153.8682336189917L190.021484375,140.93138673369373L191.09505208333334,145.3993564274694L192.16861979166666,155.66376260774476L193.2421875,140.0219536322568L194.31575520833334,125.74325225874782L195.38932291666666,146.7212647800999L196.462890625,146.18129439545527L197.53645833333334,157.72190001553722L198.61002604166669,145.17203641948953L199.68359375,128.8226459377578L200.75716145833334,135.48441973009278L201.83072916666666,148.38569561445286L202.904296875,142.1592515297234L203.97786458333331,159.1579511298665L205.05143229166666,153.94413255048647L206.125,148.46991917278083L207.19856770833334,137.60655197075434L208.27213541666666,150.21108493368538L209.345703125,132.36798322786177L210.41927083333334,161.3772118666342L211.49283854166666,145.41532275559646L212.56640625,157.8091967387923L213.63997395833334,151.85702968016267L214.71354166666669,162.61071668565273L215.787109375,156.27456885523029L216.86067708333334,172.93550290326985L217.93424479166666,159.6849459292633L219.0078125,164.07211846698607L220.08138020833331,173.48490472510457L221.15494791666666,153.6081685088575L222.228515625,167.44265036817106L223.30208333333334,172.2874889884676L224.37565104166666,169.48430336639285L225.44921875,143.04326331668665L226.52278645833334,161.58815343624778L227.59635416666666,159.43830383835092L228.669921875,155.7892913866256L229.74348958333334,162.8832981724824L230.81705729166669,150.30479880209478L231.890625,138.72611419590456L232.96419270833334,159.5633498595229L234.03776041666666,143.35254616396767L235.111328125,134.05402041333062L236.18489583333331,150.786496798907" style="fill: none;" fill="none"></path></g></g></g></g></g></g><g transform="translate(72, 177)" clip-path="url(#clip_1)"><clipPath id="clip_1"><rect width="257" height="23"></rect></clipPath><g><g><line x1="0" y1="0" x2="0" y2="5" style="visibility: inherit;" fill="rgb(0, 0, 0)" stroke="rgb(204, 204, 204)" stroke-width="1px"></line><line x1="21.471354166666664" y1="0" x2="21.471354166666664" y2="5" style="visibility: inherit;" fill="rgb(0, 0, 0)" stroke="rgb(204, 204, 204)" stroke-width="1px"></line><line x1="42.94270833333333" y1="0" x2="42.94270833333333" y2="5" style="visibility: inherit;" fill="rgb(0, 0, 0)" stroke="rgb(204, 204, 204)" stroke-width="1px"></line><line x1="64.4140625" y1="0" x2="64.4140625" y2="5" style="visibility: inherit;" fill="rgb(0, 0, 0)" stroke="rgb(204, 204, 204)" stroke-width="1px"></line><line x1="85.88541666666666" y1="0" x2="85.88541666666666" y2="5" style="visibility: inherit;" fill="rgb(0, 0, 0)" stroke="rgb(204, 204, 204)" stroke-width="1px"></line><line x1="107.35677083333334" y1="0" x2="107.35677083333334" y2="5" style="visibility: inherit;" fill="rgb(0, 0, 0)" stroke="rgb(204, 204, 204)" stroke-width="1px"></line><line x1="128.828125" y1="0" x2="128.828125" y2="5" style="visibility: inherit;" fill="rgb(0, 0, 0)" stroke="rgb(204, 204, 204)" stroke-width="1px"></line><line x1="150.29947916666669" y1="0" x2="150.29947916666669" y2="5" style="visibility: inherit;" fill="rgb(0, 0, 0)" stroke="rgb(204, 204, 204)" stroke-width="1px"></line><line x1="171.77083333333331" y1="0" x2="171.77083333333331" y2="5" style="visibility: inherit;" fill="rgb(0, 0, 0)" stroke="rgb(204, 204, 204)" stroke-width="1px"></line><line x1="193.2421875" y1="0" x2="193.2421875" y2="5" style="visibility: inherit;" fill="rgb(0, 0, 0)" stroke="rgb(204, 204, 204)" stroke-width="1px"></line><line x1="214.71354166666669" y1="0" x2="214.71354166666669" y2="5" style="visibility: inherit;" fill="rgb(0, 0, 0)" stroke="rgb(204, 204, 204)" stroke-width="1px"></line><line x1="236.18489583333331" y1="0" x2="236.18489583333331" y2="5" style="visibility: inherit;" fill="rgb(0, 0, 0)" stroke="rgb(204, 204, 204)" stroke-width="1px"></line><line x1="257.65625" y1="0" x2="257.65625" y2="5" style="visibility: inherit;" fill="rgb(0, 0, 0)" stroke="rgb(204, 204, 204)" stroke-width="1px"></line></g><g transform="translate(0, 8)"><text x="0" y="0" dx="0em" dy="0.95em" style="text-anchor: middle; visibility: hidden; font-family: Roboto, sans-serif; font-size: 12px; font-weight: 200;" fill="rgb(33, 33, 33)" stroke="none" stroke-width="1px">-200k</text><text x="21.471354166666664" y="0" dx="0em" dy="0.95em" style="text-anchor: middle; visibility: inherit; font-family: Roboto, sans-serif; font-size: 12px; font-weight: 200;" fill="rgb(33, 33, 33)" stroke="none" stroke-width="1px">0</text><text x="42.94270833333333" y="0" dx="0em" dy="0.95em" style="text-anchor: middle; visibility: hidden; font-family: Roboto, sans-serif; font-size: 12px; font-weight: 200;" fill="rgb(33, 33, 33)" stroke="none" stroke-width="1px">200k</text><text x="64.4140625" y="0" dx="0em" dy="0.95em" style="text-anchor: middle; visibility: inherit; font-family: Roboto, sans-serif; font-size: 12px; font-weight: 200;" fill="rgb(33, 33, 33)" stroke="none" stroke-width="1px">400k</text><text x="85.88541666666666" y="0" dx="0em" dy="0.95em" style="text-anchor: middle; visibility: hidden; font-family: Roboto, sans-serif; font-size: 12px; font-weight: 200;" fill="rgb(33, 33, 33)" stroke="none" stroke-width="1px">600k</text><text x="107.35677083333334" y="0" dx="0em" dy="0.95em" style="text-anchor: middle; visibility: inherit; font-family: Roboto, sans-serif; font-size: 12px; font-weight: 200;" fill="rgb(33, 33, 33)" stroke="none" stroke-width="1px">800k</text><text x="128.828125" y="0" dx="0em" dy="0.95em" style="text-anchor: middle; visibility: hidden; font-family: Roboto, sans-serif; font-size: 12px; font-weight: 200;" fill="rgb(33, 33, 33)" stroke="none" stroke-width="1px">1M</text><text x="150.29947916666669" y="0" dx="0em" dy="0.95em" style="text-anchor: middle; visibility: inherit; font-family: Roboto, sans-serif; font-size: 12px; font-weight: 200;" fill="rgb(33, 33, 33)" stroke="none" stroke-width="1px">1.2M</text><text x="171.77083333333331" y="0" dx="0em" dy="0.95em" style="text-anchor: middle; visibility: hidden; font-family: Roboto, sans-serif; font-size: 12px; font-weight: 200;" fill="rgb(33, 33, 33)" stroke="none" stroke-width="1px">1.4M</text><text x="193.2421875" y="0" dx="0em" dy="0.95em" style="text-anchor: middle; visibility: inherit; font-family: Roboto, sans-serif; font-size: 12px; font-weight: 200;" fill="rgb(33, 33, 33)" stroke="none" stroke-width="1px">1.6M</text><text x="214.71354166666669" y="0" dx="0em" dy="0.95em" style="text-anchor: middle; visibility: hidden; font-family: Roboto, sans-serif; font-size: 12px; font-weight: 200;" fill="rgb(33, 33, 33)" stroke="none" stroke-width="1px">1.8M</text><text x="236.18489583333331" y="0" dx="0em" dy="0.95em" style="text-anchor: middle; visibility: inherit; font-family: Roboto, sans-serif; font-size: 12px; font-weight: 200;" fill="rgb(33, 33, 33)" stroke="none" stroke-width="1px">2M</text><text x="257.65625" y="0" dx="0em" dy="0.95em" style="text-anchor: middle; visibility: hidden; font-family: Roboto, sans-serif; font-size: 12px; font-weight: 200;" fill="rgb(33, 33, 33)" stroke="none" stroke-width="1px">2.2M</text></g><line x1="0" y1="0" x2="257.65625" y2="0" fill="rgb(0, 0, 0)" stroke="rgb(204, 204, 204)" stroke-width="1px"></line></g></g></g></g></svg>