<svg viewBox="0 0 330 200" xmlns="http://www.w3.org/2000/svg"><g><g><g><g><g><line x1="50" y1="177" x2="45" y2="177" style="visibility: inherit;" fill="rgb(0, 0, 0)" stroke="rgb(204, 204, 204)" stroke-width="1px"></line><line x1="50" y1="160.90909090909093" x2="45" y2="160.90909090909093" style="visibility: inherit;" fill="rgb(0, 0, 0)" stroke="rgb(204, 204, 204)" stroke-width="1px"></line><line x1="50" y1="144.8181818181818" x2="45" y2="144.8181818181818" style="visibility: inherit;" fill="rgb(0, 0, 0)" stroke="rgb(204, 204, 204)" stroke-width="1px"></line><line x1="50" y1="128.72727272727272" x2="45" y2="128.72727272727272" style="visibility: inherit;" fill="rgb(0, 0, 0)" stroke="rgb(204, 204, 204)" stroke-width="1px"></line><line x1="50" y1="112.63636363636364" x2="45" y2="112.63636363636364" style="visibility: inherit;" fill="rgb(0, 0, 0)" stroke="rgb(204, 204, 204)" stroke-width="1px"></line><line x1="50" y1="96.54545454545453" x2="45" y2="96.54545454545453" style="visibility: inherit;" fill="rgb(0, 0, 0)" stroke="rgb(204, 204, 204)" stroke-width="1px"></line><line x1="50" y1="80.45454545454547" x2="45" y2="80.45454545454547" style="visibility: inherit;" fill="rgb(0, 0, 0)" stroke="rgb(204, 204, 204)" stroke-width="1px"></line><line x1="50" y1="64.36363636363639" x2="45" y2="64.36363636363639" style="visibility: inherit;" fill="rgb(0, 0, 0)" stroke="rgb(204, 204, 204)" stroke-width="1px"></line><line x1="50" y1="48.272727272727266" x2="45" y2="48.272727272727266" style="visibility: inherit;" fill="rgb(0, 0, 0)" stroke="rgb(204, 204, 204)" stroke-width="1px"></line><line x1="50" y1="32.181818181818215" x2="45" y2="32.181818181818215" style="visibility: inherit;" fill="rgb(0, 0, 0)" stroke="rgb(204, 204, 204)" stroke-width="1px"></line><line x1="50" y1="16.090909090909097" x2="45" y2="16.090909090909097" style="visibility: inherit;" fill="rgb(0, 0, 0)" stroke="rgb(204, 204, 204)" stroke-width="1px"></line><line x1="50" y1="0" x2="45" y2="0" style="visibility: inherit;" fill="rgb(0, 0, 0)" stroke="rgb(204, 204, 204)" stroke-width="1px"></line></g><g transform="translate(40, 0)"><text x="0" y="177" dx="0em" dy="0.3em" style="text-anchor: end; visibility: hidden; font-family: Roboto, sans-serif; font-size: 12px; font-weight: 200;" fill="rgb(33, 33, 33)" stroke="none" stroke-width="1px">-0.3</text><text x="0" y="160.90909090909093" dx="0em" dy="0.3em" style="text-anchor: end; visibility: inherit; font-family: Roboto, sans-serif; font-size: 12px; font-weight: 200;" fill="rgb(33, 33, 33)" stroke="none" stroke-width="1px">-0.2</text><text x="0" y="144.8181818181818" dx="0em" dy="0.3em" style="text-anchor: end; visibility: hidden; font-family: Roboto, sans-serif; font-size: 12px; font-weight: 200;" fill="rgb(33, 33, 33)" stroke="none" stroke-width="1px">-0.1</text><text x="0" y="128.72727272727272" dx="0em" dy="0.3em" style="text-anchor: end; visibility: inherit; font-family: Roboto, sans-serif; font-size: 12px; font-weight: 200;" fill="rgb(33, 33, 33)" stroke="none" stroke-width="1px">0</text><text x="0" y="112.63636363636364" dx="0em" dy="0.3em" style="text-anchor: end; visibility: hidden; font-family: Roboto, sans-serif; font-size: 12px; font-weight: 200;" fill="rgb(33, 33, 33)" stroke="none" stroke-width="1px">0.1</text><text x="0" y="96.54545454545453" dx="0em" dy="0.3em" style="text-anchor: end; visibility: inherit; font-family: Roboto, sans-serif; font-size: 12px; font-weight: 200;" fill="rgb(33, 33, 33)" stroke="none" stroke-width="1px">0.2</text><text x="0" y="80.45454545454547" dx="0em" dy="0.3em" style="text-anchor: end; visibility: hidden; font-family: Roboto, sans-serif; font-size: 12px; font-weight: 200;" fill="rgb(33, 33, 33)" stroke="none" stroke-width="1px">0.3</text><text x="0" y="64.36363636363639" dx="0em" dy="0.3em" style="text-anchor: end; visibility: inherit; font-family: Roboto, sans-serif; font-size: 12px; font-weight: 200;" fill="rgb(33, 33, 33)" stroke="none" stroke-width="1px">0.4</text><text x="0" y="48.272727272727266" dx="0em" dy="0.3em" style="text-anchor: end; visibility: hidden; font-family: Roboto, sans-serif; font-size: 12px; font-weight: 200;" fill="rgb(33, 33, 33)" stroke="none" stroke-width="1px">0.5</text><text x="0" y="32.181818181818215" dx="0em" dy="0.3em" style="text-anchor: end; visibility: inherit; font-family: Roboto, sans-serif; font-size: 12px; font-weight: 200;" fill="rgb(33, 33, 33)" stroke="none" stroke-width="1px">0.6</text><text x="0" y="16.090909090909097" dx="0em" dy="0.3em" style="text-anchor: end; visibility: hidden; font-family: Roboto, sans-serif; font-size: 12px; font-weight: 200;" fill="rgb(33, 33, 33)" stroke="none" stroke-width="1px">0.7</text><text x="0" y="0" dx="0em" dy="0.3em" style="text-anchor: end; visibility: hidden; font-family: Roboto, sans-serif; font-size: 12px; font-weight: 200;" fill="rgb(33, 33, 33)" stroke="none" stroke-width="1px">0.8</text></g><line x1="50" y1="0" x2="50" y2="177" fill="rgb(0, 0, 0)" stroke="rgb(204, 204, 204)" stroke-width="1px"></line></g></g><g transform="translate(50, 0)" clip-path="url(#clip_0)"><clipPath id="clip_0"><rect width="280" height="177"></rect></clipPath><g><g><g><line x1="0" y1="0" x2="0" y2="177" fill="rgb(0, 0, 0)" stroke="rgb(66, 66, 66)" stroke-width="1px" opacity="0.25"></line><line x1="23.333333333333332" y1="0" x2="23.333333333333332" y2="177" fill="rgb(0, 0, 0)" stroke="rgb(66, 66, 66)" stroke-width="1px" opacity="0.25"></line><line x1="46.666666666666664" y1="0" x2="46.666666666666664" y2="177" fill="rgb(0, 0, 0)" stroke="rgb(66, 66, 66)" stroke-width="1px" opacity="0.25"></line><line x1="70" y1="0" x2="70" y2="177" fill="rgb(0, 0, 0)" stroke="rgb(66, 66, 66)" stroke-width="1px" opacity="0.25"></line><line x1="93.33333333333333" y1="0" x2="93.33333333333333" y2="177" fill="rgb(0, 0, 0)" stroke="rgb(66, 66, 66)" stroke-width="1px" opacity="0.25"></line><line x1="116.66666666666667" y1="0" x2="116.66666666666667" y2="177" fill="rgb(0, 0, 0)" stroke="rgb(66, 66, 66)" stroke-width="1px" opacity="0.25"></line><line x1="140" y1="0" x2="140" y2="177" fill="rgb(0, 0, 0)" stroke="rgb(66, 66, 66)" stroke-width="1px" opacity="0.25"></line><line x1="163.33333333333334" y1="0" x2="163.33333333333334" y2="177" fill="rgb(0, 0, 0)" stroke="rgb(66, 66, 66)" stroke-width="1px" opacity="0.25"></line><line x1="186.66666666666666" y1="0" x2="186.66666666666666" y2="177" fill="rgb(0, 0, 0)" stroke="rgb(66, 66, 66)" stroke-width="1px" opacity="0.25"></line><line x1="210" y1="0" x2="210" y2="177" fill="rgb(0, 0, 0)" stroke="rgb(66, 66, 66)" stroke-width="1px" opacity="0.25"></line><line x1="233.33333333333334" y1="0" x2="233.33333333333334" y2="177" fill="rgb(0, 0, 0)" stroke="rgb(66, 66, 66)" stroke-width="1px" opacity="0.25"></line><line x1="256.66666666666663" y1="0" x2="256.66666666666663" y2="177" fill="rgb(0, 0, 0)" stroke="rgb(66, 66, 66)" stroke-width="1px" opacity="0.25"></line><line x1="280" y1="0" x2="280" y2="177" fill="rgb(0, 0, 0)" stroke="rgb(66, 66, 66)" stroke-width="1px" opacity="0.25"></line></g><g><line x1="0" y1="177" x2="280" y2="177" fill="rgb(0, 0, 0)" stroke="rgb(66, 66, 66)" stroke-width="1px" opacity="0.25"></line><line x1="0" y1="160.90909090909093" x2="280" y2="160.90909090909093" fill="rgb(0, 0, 0)" stroke="rgb(66, 66, 66)" stroke-width="1px" opacity="0.25"></line><line x1="0" y1="144.8181818181818" x2="280" y2="144.8181818181818" fill="rgb(0, 0, 0)" stroke="rgb(66, 66, 66)" stroke-width="1px" opacity="0.25"></line><line x1="0" y1="128.72727272727272" x2="280" y2="128.72727272727272" fill="rgb(0, 0, 0)" stroke="rgb(66, 66, 66)" stroke-width="1px" opacity="0.25"></line><line x1="0" y1="112.63636363636364" x2="280" y2="112.63636363636364" fill="rgb(0, 0, 0)" stroke="rgb(66, 66, 66)" stroke-width="1px" opacity="0.25"></line><line x1="0" y1="96.54545454545453" x2="280" y2="96.54545454545453" fill="rgb(0, 0, 0)" stroke="rgb(66, 66, 66)" stroke-width="1px" opacity="0.25"></line><line x1="0" y1="80.45454545454547" x2="280" y2="80.45454545454547" fill="rgb(0, 0, 0)" stroke="rgb(66, 66, 66)" stroke-width="1px" opacity="0.25"></line><line x1="0" y1="64.36363636363639" x2="280" y2="64.36363636363639" fill="rgb(0, 0, 0)" stroke="rgb(66, 66, 66)" stroke-width="1px" opacity="0.25"></line><line x1="0" y1="48.272727272727266" x2="280" y2="48.272727272727266" fill="rgb(0, 0, 0)" stroke="rgb(66, 66, 66)" stroke-width="1px" opacity="0.25"></line><line x1="0" y1="32.181818181818215" x2="280" y2="32.181818181818215" fill="rgb(0, 0, 0)" stroke="rgb(66, 66, 66)" stroke-width="1px" opacity="0.25"></line><line x1="0" y1="16.090909090909097" x2="280" y2="16.090909090909097" fill="rgb(0, 0, 0)" stroke="rgb(66, 66, 66)" stroke-width="1px" opacity="0.25"></line><line x1="0" y1="0" x2="280" y2="0" fill="rgb(0, 0, 0)" stroke="rgb(66, 66, 66)" stroke-width="1px" opacity="0.25"></line></g></g></g><g><g><line x1="0" y1="128.72727272727272" x2="280" y2="128.72727272727272" fill="rgb(0, 0, 0)" stroke="rgb(153, 153, 153)" stroke-width="1.5px"></line></g></g><g><g><line x1="23.333333333333332" y1="0" x2="23.333333333333332" y2="177" fill="rgb(0, 0, 0)" stroke="rgb(153, 153, 153)" stroke-width="1.5px"></line></g></g><g><g><g><g><g><path stroke="rgb(0, 153, 136)" stroke-width="2px" d="M33.833333333333336,180.3243480680931L35,160.32567024542408L36.16666666666667,154.70599264122748L37.333333333333336,137.48232588297998L38.5,130.5166726691788L39.666666666666664,124.28288899366032L40.833333333333336,121.02380132646398L42,111.63823789481049L43.16666666666667,106.21499535814156L44.33333333333333,104.70668649128633L45.5,101.51613719042814L46.666666666666664,100.17005287003036L47.833333333333336,95.52147011567394L49,94.22655709493682L50.166666666666664,89.44680651531962L51.33333333333333,88.07209560370265L52.5,88.08321883136038L53.66666666666667,83.26631730498526L54.833333333333336,82.55921592633425L56,82.48557411311158L57.166666666666664,82.9562284537339L58.333333333333336,84.74598869157181L59.5,80.85127145556763L60.66666666666667,81.3948713703002L61.83333333333333,79.88868329179408L63,74.31189135216152L64.16666666666666,76.3340249371608L65.33333333333333,74.13930685875003L66.5,73.17787526372416L67.66666666666667,73.68173069012924L68.83333333333333,77.40054193536234L70,75.62877140866723L71.16666666666666,72.11737886644381L72.33333333333334,69.7431084230748L73.5,68.48885827654802L74.66666666666667,67.88181660903952L75.83333333333333,66.15535195021376L77,65.86497623127248L78.16666666666667,63.09327644309173L79.33333333333333,64.16879226773457L80.5,65.49921889923932L81.66666666666667,61.399581858629595L82.83333333333333,60.37543648934098L84,57.649458445840295L85.16666666666666,55.45262924356287L86.33333333333334,52.90241890457241L87.5,51.205631748463475L88.66666666666666,50.524772521757875L89.83333333333334,51.34301347470383L91,52.24631377164935L92.16666666666667,49.30670486487609L93.33333333333333,50.698320571479606L94.5,51.10216615339444L95.66666666666667,47.50134785570141L96.83333333333333,46.56330231083696L98,47.92023660639286L99.16666666666667,46.909676382439145L100.33333333333333,50.81942467727737L101.5,48.04775224184594L102.66666666666666,47.72309479506252L103.83333333333334,46.806031875224654L105,49.07151133257915L106.16666666666666,50.200656860536924L107.33333333333334,49.414205779818545L108.5,46.44018107707148L109.66666666666667,46.7798762838964L110.83333333333333,44.48625535734749L112,42.9445671568544L113.16666666666667,40.72954491427696L114.33333333333333,38.47061876463292L115.5,39.65741304740821L116.66666666666667,40.09899537041364L117.83333333333333,40.28465495823926L119,38.680067715098545L120.16666666666666,37.423672368470065L121.33333333333334,39.48490551718146L122.5,41.335311560779274L123.66666666666666,42.761520746912204L124.83333333333334,43.32546720898612L126,42.99194735377174L127.16666666666667,42.87650848833926L128.33333333333331,43.17761448996098L129.5,43.860962789955074L130.66666666666666,39.79375392102501L131.83333333333334,37.72956880879056L133,37.0003961606767L134.16666666666669,34.22210863830199L135.33333333333334,33.13391864463104L136.5,29.947230128541385L137.66666666666666,30.79151164171564L138.83333333333334,35.00984767777095L140,36.78550072363205L141.16666666666666,36.40809186586965L142.33333333333331,35.30320433377386L143.5,35.01595455570238L144.66666666666669,33.2831366747597L145.83333333333334,33.19549679932166L147,34.102291400662374L148.16666666666666,34.67441001849393L149.33333333333334,34.60525008245277L150.5,34.25944446173744L151.66666666666666,36.19886708129619L152.83333333333331,38.97036871519996L154,40.2966557710823L155.16666666666669,41.155108981349365L156.33333333333334,39.343578023585465L157.5,35.96180867027155L158.66666666666666,35.399450269422786L159.83333333333331,33.711737323796214L161,32.57840742572464L162.16666666666669,33.20492600173099L163.33333333333334,31.685238832088007L164.5,30.770214012733433L165.66666666666666,30.966826952144253L166.83333333333334,34.62533909276998L168,33.10140969904743L169.16666666666666,32.49959433804738L170.33333333333331,31.30583348962334L171.5,31.92860275959398L172.66666666666669,28.89328060322172L173.83333333333334,28.857466041818213L175,31.110259204991127L176.16666666666666,27.844662393980048L177.33333333333331,26.99294926291079L178.5,27.486272965967235L179.66666666666669,29.717643343413215L180.83333333333334,26.069490018805226L182,29.0199265740371L183.16666666666666,27.313919952794567L184.33333333333334,27.126762106749652L185.5,28.165881513739425L186.66666666666666,29.69823854579317L187.83333333333331,26.471281642061133L189,23.33568915714633L190.16666666666669,23.761851891824662L191.33333333333334,24.674984772749017L192.5,22.31807610831568L193.66666666666666,23.452714127058794L194.83333333333331,19.854692582799853L196,20.463014631996227L197.16666666666669,20.535338920392146L198.33333333333334,21.196239806594857L199.5,21.856747691884497L200.66666666666666,19.554032612732115L201.83333333333334,21.378500632165157L203,21.43168470393984L204.16666666666666,21.522286601339808L205.33333333333331,21.172167925321045L206.5,20.71643004413413L207.66666666666669,22.376736927012427L208.83333333333334,21.834692149802514L210,22.63333650447606L211.16666666666666,25.785710932718317L212.33333333333331,22.838182932543592L213.5,21.808555682070633L214.66666666666669,19.159736331450357L215.83333333333334,18.56863951220754L217,21.012399551941172L218.16666666666666,22.602748685461354L219.33333333333334,19.394837243412635L220.5,19.992512889594806L221.66666666666666,17.554300927158582L222.83333333333331,17.13012952214842L224,18.744396513461183L225.16666666666669,20.880530682628375L226.33333333333334,22.09301318371276L227.5,20.069085963785568L228.66666666666666,19.267566522432936L229.83333333333331,19.253407567071616L231,18.552918294280076L232.16666666666669,17.3639229216044L233.33333333333334,16.918588161723697L234.5,16.453826546796623L235.66666666666666,17.58376530090124L236.83333333333334,17.73244998674985L238,17.40766581081772L239.16666666666666,16.50823958625292L240.33333333333331,16.173502533277258L241.5,17.13421430438958L242.66666666666669,17.243641002951343L243.83333333333334,14.561832067811185L245,18.53069139483666L246.16666666666666,17.131139120637478L247.33333333333331,14.135030781363474L248.5,16.482277448723053L249.66666666666669,16.135043161079864L250.83333333333334,17.324647126171698L252,19.14480061031252L253.16666666666666,18.15281386342261L254.33333333333334,17.094192605503036L255.5,18.15679399687972L256.66666666666663,16.999477333059904" style="fill: none;" fill="none"></path></g></g></g></g><g opacity="0.2"><g><g><g><path stroke="rgb(0, 153, 136)" stroke-width="2px" d="M32.666666666666664,183.36343478614634L33.833333333333336,162.47322328253225L35,140.36605234037745L36.16666666666667,149.0918030034412L37.333333333333336,120.26706911826676L38.5,123.55272005430676L39.666666666666664,118.04986627806316L40.833333333333336,117.76491257819264L42,102.25296088782224L43.16666666666667,100.79183557358655L44.33333333333333,103.19838913191451L45.5,98.32560006054966L46.666666666666664,98.82397111708468L47.833333333333336,90.8728917945515L49,92.93164469166234L50.166666666666664,84.66705707528375L51.33333333333333,86.69738485596396L52.5,88.09434205835517L53.66666666666667,78.44941592216492L54.833333333333336,81.85211455821991L56,82.41193230043758L57.166666666666664,83.42688279260288L58.333333333333336,86.53574892607602L59.5,76.95655422319065L60.66666666666667,81.93847128477964L61.83333333333333,78.38249521363865L63,68.73509941317819L64.16666666666666,78.35615852204236L65.33333333333333,71.94458878040314L66.5,72.21644366871227L67.66666666666667,74.18558611653067L68.83333333333333,81.11935318058188L70,73.85700088197535L71.16666666666666,68.60598632422361L72.33333333333334,67.36883797970685L73.5,67.23460813002154L74.66666666666667,67.27477494153109L75.83333333333333,64.42888729138807L77,65.57460051233119L78.16666666666667,60.32157665491104L79.33333333333333,65.24430809237741L80.5,66.82964553074405L81.66666666666667,57.29994481801987L82.83333333333333,59.35129112005234L84,54.923480402339585L85.16666666666666,53.255800041285426L86.33333333333334,50.352208565581925L87.5,49.50884459235452L88.66666666666666,49.843913295052275L89.83333333333334,52.16125442764975L91,53.14961406859484L92.16666666666667,46.36709595810283L93.33333333333333,52.0899362780831L94.5,51.50601173530925L95.66666666666667,43.90052955800838L96.83333333333333,45.62525676597249L98,49.277170901948764L99.16666666666667,45.89911615848541L100.33333333333333,54.729172972115606L101.5,45.276079806414515L102.66666666666666,47.39843734827909L103.83333333333334,45.888968955386765L105,51.336990789933644L106.16666666666666,51.32980238849468L107.33333333333334,48.627754699100144L108.5,43.46615637432445L109.66666666666667,47.119571490721285L110.83333333333333,42.19263443079862L112,41.402878956361256L113.16666666666667,38.514522671699524L114.33333333333333,36.21169261498886L115.5,40.844207330183565L116.66666666666667,40.54057769341904L117.83333333333333,40.47031454606491L119,37.07548047195781L120.16666666666666,36.167277021841585L121.33333333333334,41.546138665892855L122.5,43.18571760437705L123.66666666666666,44.187729933045134L124.83333333333334,43.88941367106005L126,42.658427498557344L127.16666666666667,42.761069622906774L128.33333333333331,43.478720491582706L129.5,44.54431108994919L130.66666666666666,35.7265450520949L131.83333333333334,35.66538369655609L133,36.27122351256284L134.16666666666669,31.443821115927275L135.33333333333334,32.04572865096006L136.5,26.76054161245174L137.66666666666666,31.635793154889896L138.83333333333334,39.22818371382627L140,38.5611537694931L141.16666666666666,36.030683008107275L142.33333333333331,34.198316801678054L143.5,34.728704777630895L144.66666666666669,31.550318793817006L145.83333333333334,33.107856923883624L147,35.009086002003066L148.16666666666666,35.246528636325486L149.33333333333334,34.536090146411546L150.5,33.91363884102214L151.66666666666666,38.138289700854905L152.83333333333331,41.74187034910376L154,41.62294282696463L155.16666666666669,42.01356219161641L156.33333333333334,37.53204706582156L157.5,32.58003931695766L158.66666666666666,34.83709186857398L159.83333333333331,32.02402437816966L161,31.44507752765309L162.16666666666669,33.831444577737294L163.33333333333334,30.16555166244507L164.5,29.8551891933788L165.66666666666666,31.16343989155509L166.83333333333334,38.283851233395666L168,31.577480305324904L169.16666666666666,31.897778977047317L170.33333333333331,30.112072641199298L171.5,32.551372029564604L172.66666666666669,25.857958446849473L173.83333333333334,28.821651480414648L175,33.36305236816406L176.16666666666666,24.57906558296897L177.33333333333331,26.141236131841495L178.5,27.9795966690237L179.66666666666669,31.949013720859178L180.83333333333334,22.421336694197233L182,31.970363129268996L183.16666666666666,25.60791333155199L184.33333333333334,26.939604260704737L185.5,29.205000920729216L186.66666666666666,31.230595577846877L187.83333333333331,23.24432473832912L189,20.20009667223151L190.16666666666669,24.18801462650299L191.33333333333334,25.588117653673358L192.5,19.96116744388234L193.66666666666666,24.587352145801894L194.83333333333331,16.256671038540933L196,21.071336681192584L197.16666666666669,20.607663208788104L198.33333333333334,21.85714069279759L199.5,22.517255577174115L200.66666666666666,17.251317533579755L201.83333333333334,23.202968651598162L203,21.484868775714524L204.16666666666666,21.612888498739775L205.33333333333331,20.82204924930226L206.5,20.260692162947233L207.66666666666669,24.037043809890747L208.83333333333334,21.292647372592576L210,23.431980859149583L211.16666666666666,28.93808536096054L212.33333333333331,19.890654932368882L213.5,20.778928431597638L214.66666666666669,16.51091698083012L215.83333333333334,17.97754269296474L217,23.456159591674805L218.16666666666666,24.19309781898152L219.33333333333334,16.186925801363873L220.5,20.59018853577702L221.66666666666666,15.116088964722376L222.83333333333331,16.70595811713826L224,20.35866350477393L225.16666666666669,23.016664851795547L226.33333333333334,23.305495684797123L227.5,18.045158743858337L228.66666666666666,18.466047081080365L229.83333333333331,19.23924861171029L231,17.85242902148854L232.16666666666669,16.1749275489287L233.33333333333334,16.473253401843L234.5,15.989064931869507L235.66666666666666,18.713704055005863L236.83333333333334,17.881134672598417L238,17.082881634885624L239.16666666666666,15.608813361688101L240.33333333333331,15.8387654803016L241.5,18.09492607550188L242.66666666666669,17.353067701513126L243.83333333333334,11.880023132671008L245,22.499550721862096L246.16666666666666,15.731586846438336L247.33333333333331,11.138922442089429L248.5,18.82952411608263L249.66666666666669,15.78780887343667L250.83333333333334,18.514251091263514L252,20.964954094453297L253.16666666666666,17.160827116532765L254.33333333333334,16.03557134758342L255.5,19.219395388256423L256.66666666666663,15.84216066924009" style="fill: none;" fill="none"></path></g></g></g></g></g></g><g transform="translate(50, 177)" clip-path="url(#clip_1)"><clipPath id="clip_1"><rect width="280" height="23"></rect></clipPath><g><g><line x1="0" y1="0" x2="0" y2="5" style="visibility: inherit;" fill="rgb(0, 0, 0)" stroke="rgb(204, 204, 204)" stroke-width="1px"></line><line x1="23.333333333333332" y1="0" x2="23.333333333333332" y2="5" style="visibility: inherit;" fill="rgb(0, 0, 0)" stroke="rgb(204, 204, 204)" stroke-width="1px"></line><line x1="46.666666666666664" y1="0" x2="46.666666666666664" y2="5" style="visibility: inherit;" fill="rgb(0, 0, 0)" stroke="rgb(204, 204, 204)" stroke-width="1px"></line><line x1="70" y1="0" x2="70" y2="5" style="visibility: inherit;" fill="rgb(0, 0, 0)" stroke="rgb(204, 204, 204)" stroke-width="1px"></line><line x1="93.33333333333333" y1="0" x2="93.33333333333333" y2="5" style="visibility: inherit;" fill="rgb(0, 0, 0)" stroke="rgb(204, 204, 204)" stroke-width="1px"></line><line x1="116.66666666666667" y1="0" x2="116.66666666666667" y2="5" style="visibility: inherit;" fill="rgb(0, 0, 0)" stroke="rgb(204, 204, 204)" stroke-width="1px"></line><line x1="140" y1="0" x2="140" y2="5" style="visibility: inherit;" fill="rgb(0, 0, 0)" stroke="rgb(204, 204, 204)" stroke-width="1px"></line><line x1="163.33333333333334" y1="0" x2="163.33333333333334" y2="5" style="visibility: inherit;" fill="rgb(0, 0, 0)" stroke="rgb(204, 204, 204)" stroke-width="1px"></line><line x1="186.66666666666666" y1="0" x2="186.66666666666666" y2="5" style="visibility: inherit;" fill="rgb(0, 0, 0)" stroke="rgb(204, 204, 204)" stroke-width="1px"></line><line x1="210" y1="0" x2="210" y2="5" style="visibility: inherit;" fill="rgb(0, 0, 0)" stroke="rgb(204, 204, 204)" stroke-width="1px"></line><line x1="233.33333333333334" y1="0" x2="233.33333333333334" y2="5" style="visibility: inherit;" fill="rgb(0, 0, 0)" stroke="rgb(204, 204, 204)" stroke-width="1px"></line><line x1="256.66666666666663" y1="0" x2="256.66666666666663" y2="5" style="visibility: inherit;" fill="rgb(0, 0, 0)" stroke="rgb(204, 204, 204)" stroke-width="1px"></line><line x1="280" y1="0" x2="280" y2="5" style="visibility: inherit;" fill="rgb(0, 0, 0)" stroke="rgb(204, 204, 204)" stroke-width="1px"></line></g><g transform="translate(0, 8)"><text x="0" y="0" dx="0em" dy="0.95em" style="text-anchor: middle; visibility: hidden; font-family: Roboto, sans-serif; font-size: 12px; font-weight: 200;" fill="rgb(33, 33, 33)" stroke="none" stroke-width="1px">-200k</text><text x="23.333333333333332" y="0" dx="0em" dy="0.95em" style="text-anchor: middle; visibility: inherit; font-family: Roboto, sans-serif; font-size: 12px; font-weight: 200;" fill="rgb(33, 33, 33)" stroke="none" stroke-width="1px">0</text><text x="46.666666666666664" y="0" dx="0em" dy="0.95em" style="text-anchor: middle; visibility: hidden; font-family: Roboto, sans-serif; font-size: 12px; font-weight: 200;" fill="rgb(33, 33, 33)" stroke="none" stroke-width="1px">200k</text><text x="70" y="0" dx="0em" dy="0.95em" style="text-anchor: middle; visibility: inherit; font-family: Roboto, sans-serif; font-size: 12px; font-weight: 200;" fill="rgb(33, 33, 33)" stroke="none" stroke-width="1px">400k</text><text x="93.33333333333333" y="0" dx="0em" dy="0.95em" style="text-anchor: middle; visibility: hidden; font-family: Roboto, sans-serif; font-size: 12px; font-weight: 200;" fill="rgb(33, 33, 33)" stroke="none" stroke-width="1px">600k</text><text x="116.66666666666667" y="0" dx="0em" dy="0.95em" style="text-anchor: middle; visibility: inherit; font-family: Roboto, sans-serif; font-size: 12px; font-weight: 200;" fill="rgb(33, 33, 33)" stroke="none" stroke-width="1px">800k</text><text x="140" y="0" dx="0em" dy="0.95em" style="text-anchor: middle; visibility: hidden; font-family: Roboto, sans-serif; font-size: 12px; font-weight: 200;" fill="rgb(33, 33, 33)" stroke="none" stroke-width="1px">1M</text><text x="163.33333333333334" y="0" dx="0em" dy="0.95em" style="text-anchor: middle; visibility: inherit; font-family: Roboto, sans-serif; font-size: 12px; font-weight: 200;" fill="rgb(33, 33, 33)" stroke="none" stroke-width="1px">1.2M</text><text x="186.66666666666666" y="0" dx="0em" dy="0.95em" style="text-anchor: middle; visibility: hidden; font-family: Roboto, sans-serif; font-size: 12px; font-weight: 200;" fill="rgb(33, 33, 33)" stroke="none" stroke-width="1px">1.4M</text><text x="210" y="0" dx="0em" dy="0.95em" style="text-anchor: middle; visibility: inherit; font-family: Roboto, sans-serif; font-size: 12px; font-weight: 200;" fill="rgb(33, 33, 33)" stroke="none" stroke-width="1px">1.6M</text><text x="233.33333333333334" y="0" dx="0em" dy="0.95em" style="text-anchor: middle; visibility: hidden; font-family: Roboto, sans-serif; font-size: 12px; font-weight: 200;" fill="rgb(33, 33, 33)" stroke="none" stroke-width="1px">1.8M</text><text x="256.66666666666663" y="0" dx="0em" dy="0.95em" style="text-anchor: middle; visibility: inherit; font-family: Roboto, sans-serif; font-size: 12px; font-weight: 200;" fill="rgb(33, 33, 33)" stroke="none" stroke-width="1px">2M</text><text x="280" y="0" dx="0em" dy="0.95em" style="text-anchor: middle; visibility: hidden; font-family: Roboto, sans-serif; font-size: 12px; font-weight: 200;" fill="rgb(33, 33, 33)" stroke="none" stroke-width="1px">2.2M</text></g><line x1="0" y1="0" x2="280" y2="0" fill="rgb(0, 0, 0)" stroke="rgb(204, 204, 204)" stroke-width="1px"></line></g></g></g></g></svg>