<svg viewBox="0 0 330 200" xmlns="http://www.w3.org/2000/svg"><g><g><g><g><g><line x1="50" y1="162.4679725330709" x2="45" y2="162.4679725330709" style="visibility: inherit;" fill="rgb(0, 0, 0)" stroke="rgb(204, 204, 204)" stroke-width="1px"></line><line x1="50" y1="143.00523084917072" x2="45" y2="143.00523084917072" style="visibility: inherit;" fill="rgb(0, 0, 0)" stroke="rgb(204, 204, 204)" stroke-width="1px"></line><line x1="50" y1="123.54248916527055" x2="45" y2="123.54248916527055" style="visibility: inherit;" fill="rgb(0, 0, 0)" stroke="rgb(204, 204, 204)" stroke-width="1px"></line><line x1="50" y1="104.07974748137038" x2="45" y2="104.07974748137038" style="visibility: inherit;" fill="rgb(0, 0, 0)" stroke="rgb(204, 204, 204)" stroke-width="1px"></line><line x1="50" y1="84.6170057974702" x2="45" y2="84.6170057974702" style="visibility: inherit;" fill="rgb(0, 0, 0)" stroke="rgb(204, 204, 204)" stroke-width="1px"></line><line x1="50" y1="65.15426411357002" x2="45" y2="65.15426411357002" style="visibility: inherit;" fill="rgb(0, 0, 0)" stroke="rgb(204, 204, 204)" stroke-width="1px"></line><line x1="50" y1="45.691522429669824" x2="45" y2="45.691522429669824" style="visibility: inherit;" fill="rgb(0, 0, 0)" stroke="rgb(204, 204, 204)" stroke-width="1px"></line><line x1="50" y1="26.228780745769647" x2="45" y2="26.228780745769647" style="visibility: inherit;" fill="rgb(0, 0, 0)" stroke="rgb(204, 204, 204)" stroke-width="1px"></line><line x1="50" y1="6.766039061869469" x2="45" y2="6.766039061869469" style="visibility: inherit;" fill="rgb(0, 0, 0)" stroke="rgb(204, 204, 204)" stroke-width="1px"></line></g><g transform="translate(40, 0)"><text x="0" y="162.4679725330709" dx="0em" dy="0.3em" style="text-anchor: end; visibility: inherit; font-family: Roboto, sans-serif; font-size: 12px; font-weight: 200;" fill="rgb(33, 33, 33)" stroke="none" stroke-width="1px">-1.6</text><text x="0" y="143.00523084917072" dx="0em" dy="0.3em" style="text-anchor: end; visibility: hidden; font-family: Roboto, sans-serif; font-size: 12px; font-weight: 200;" fill="rgb(33, 33, 33)" stroke="none" stroke-width="1px">-1.4</text><text x="0" y="123.54248916527055" dx="0em" dy="0.3em" style="text-anchor: end; visibility: inherit; font-family: Roboto, sans-serif; font-size: 12px; font-weight: 200;" fill="rgb(33, 33, 33)" stroke="none" stroke-width="1px">-1.2</text><text x="0" y="104.07974748137038" dx="0em" dy="0.3em" style="text-anchor: end; visibility: hidden; font-family: Roboto, sans-serif; font-size: 12px; font-weight: 200;" fill="rgb(33, 33, 33)" stroke="none" stroke-width="1px">-1</text><text x="0" y="84.6170057974702" dx="0em" dy="0.3em" style="text-anchor: end; visibility: inherit; font-family: Roboto, sans-serif; font-size: 12px; font-weight: 200;" fill="rgb(33, 33, 33)" stroke="none" stroke-width="1px">-0.8</text><text x="0" y="65.15426411357002" dx="0em" dy="0.3em" style="text-anchor: end; visibility: hidden; font-family: Roboto, sans-serif; font-size: 12px; font-weight: 200;" fill="rgb(33, 33, 33)" stroke="none" stroke-width="1px">-0.6</text><text x="0" y="45.691522429669824" dx="0em" dy="0.3em" style="text-anchor: end; visibility: inherit; font-family: Roboto, sans-serif; font-size: 12px; font-weight: 200;" fill="rgb(33, 33, 33)" stroke="none" stroke-width="1px">-0.4</text><text x="0" y="26.228780745769647" dx="0em" dy="0.3em" style="text-anchor: end; visibility: hidden; font-family: Roboto, sans-serif; font-size: 12px; font-weight: 200;" fill="rgb(33, 33, 33)" stroke="none" stroke-width="1px">-0.2</text><text x="0" y="6.766039061869469" dx="0em" dy="0.3em" style="text-anchor: end; visibility: inherit; font-family: Roboto, sans-serif; font-size: 12px; font-weight: 200;" fill="rgb(33, 33, 33)" stroke="none" stroke-width="1px">0</text></g><line x1="50" y1="0" x2="50" y2="177" fill="rgb(0, 0, 0)" stroke="rgb(204, 204, 204)" stroke-width="1px"></line></g></g><g transform="translate(50, 0)" clip-path="url(#clip_0)"><clipPath id="clip_0"><rect width="280" height="177"></rect></clipPath><g><g><g><line x1="11.694919790557519" y1="0" x2="11.694919790557519" y2="177" fill="rgb(0, 0, 0)" stroke="rgb(66, 66, 66)" stroke-width="1px" opacity="0.25"></line><line x1="42.483437708591694" y1="0" x2="42.483437708591694" y2="177" fill="rgb(0, 0, 0)" stroke="rgb(66, 66, 66)" stroke-width="1px" opacity="0.25"></line><line x1="73.27195562662587" y1="0" x2="73.27195562662587" y2="177" fill="rgb(0, 0, 0)" stroke="rgb(66, 66, 66)" stroke-width="1px" opacity="0.25"></line><line x1="104.06047354466003" y1="0" x2="104.06047354466003" y2="177" fill="rgb(0, 0, 0)" stroke="rgb(66, 66, 66)" stroke-width="1px" opacity="0.25"></line><line x1="134.8489914626942" y1="0" x2="134.8489914626942" y2="177" fill="rgb(0, 0, 0)" stroke="rgb(66, 66, 66)" stroke-width="1px" opacity="0.25"></line><line x1="165.63750938072837" y1="0" x2="165.63750938072837" y2="177" fill="rgb(0, 0, 0)" stroke="rgb(66, 66, 66)" stroke-width="1px" opacity="0.25"></line><line x1="196.42602729876256" y1="0" x2="196.42602729876256" y2="177" fill="rgb(0, 0, 0)" stroke="rgb(66, 66, 66)" stroke-width="1px" opacity="0.25"></line><line x1="227.21454521679672" y1="0" x2="227.21454521679672" y2="177" fill="rgb(0, 0, 0)" stroke="rgb(66, 66, 66)" stroke-width="1px" opacity="0.25"></line><line x1="258.0030631348309" y1="0" x2="258.0030631348309" y2="177" fill="rgb(0, 0, 0)" stroke="rgb(66, 66, 66)" stroke-width="1px" opacity="0.25"></line></g><g><line x1="0" y1="162.4679725330709" x2="280" y2="162.4679725330709" fill="rgb(0, 0, 0)" stroke="rgb(66, 66, 66)" stroke-width="1px" opacity="0.25"></line><line x1="0" y1="143.00523084917072" x2="280" y2="143.00523084917072" fill="rgb(0, 0, 0)" stroke="rgb(66, 66, 66)" stroke-width="1px" opacity="0.25"></line><line x1="0" y1="123.54248916527055" x2="280" y2="123.54248916527055" fill="rgb(0, 0, 0)" stroke="rgb(66, 66, 66)" stroke-width="1px" opacity="0.25"></line><line x1="0" y1="104.07974748137038" x2="280" y2="104.07974748137038" fill="rgb(0, 0, 0)" stroke="rgb(66, 66, 66)" stroke-width="1px" opacity="0.25"></line><line x1="0" y1="84.6170057974702" x2="280" y2="84.6170057974702" fill="rgb(0, 0, 0)" stroke="rgb(66, 66, 66)" stroke-width="1px" opacity="0.25"></line><line x1="0" y1="65.15426411357002" x2="280" y2="65.15426411357002" fill="rgb(0, 0, 0)" stroke="rgb(66, 66, 66)" stroke-width="1px" opacity="0.25"></line><line x1="0" y1="45.691522429669824" x2="280" y2="45.691522429669824" fill="rgb(0, 0, 0)" stroke="rgb(66, 66, 66)" stroke-width="1px" opacity="0.25"></line><line x1="0" y1="26.228780745769647" x2="280" y2="26.228780745769647" fill="rgb(0, 0, 0)" stroke="rgb(66, 66, 66)" stroke-width="1px" opacity="0.25"></line><line x1="0" y1="6.766039061869469" x2="280" y2="6.766039061869469" fill="rgb(0, 0, 0)" stroke="rgb(66, 66, 66)" stroke-width="1px" opacity="0.25"></line></g></g></g><g><g><line x1="0" y1="6.766039061869469" x2="280" y2="6.766039061869469" fill="rgb(0, 0, 0)" stroke="rgb(153, 153, 153)" stroke-width="1.5px"></line></g></g><g><g><line x1="73.27195562662587" y1="0" x2="73.27195562662587" y2="177" fill="rgb(0, 0, 0)" stroke="rgb(153, 153, 153)" stroke-width="1.5px"></line></g></g><g><g><g><g><g><path stroke="rgb(0, 119, 187)" stroke-width="2px" d="M74.81138152252757,136.96104443471893L76.35080741842927,162.49916913025146L77.89023331433098,172.744513389106L79.42965921023269,170.8331883798503L80.9690851061344,170.9022609734755L82.50851100203612,163.82654557799628L84.04793689793782,160.13748496536343L85.58736279383953,150.9316267041957L87.12678868974123,146.50969753740924L88.66621458564293,142.65520998911208L90.20564048154465,139.8899935355006L91.74506637744635,131.05368385522345L93.28449227334808,123.83622959430848L94.82391816924978,114.7979342645083L96.36334406515148,104.92235193395149L97.9027699610532,98.42517376822632L99.4421958569549,97.0091750859589L100.9816217528566,90.01217169376308L102.52104764875833,84.2424595879071L104.06047354466003,81.53005903810005L105.59989944056174,76.26224273862256L107.13932533646344,67.80054299974915L108.67875123236514,65.69829820932186L110.21817712826686,67.23754114172033L111.75760302416857,64.16097351026728L113.29702892007028,61.14468742056327L114.83645481597199,57.59276997485966L116.37588071187369,53.38725555282283L117.9153066077754,47.54211119566896L119.4547325036771,45.28666484770856L120.99415839957882,45.505056989370644L122.53358429548054,42.8485807524022L124.07301019138224,42.635295971540366L125.61243608728394,42.73459935279549L127.15186198318565,43.9942667920424L128.69128787908735,47.881436185689466L130.23071377498908,45.73066785611233L131.77013967089079,48.57854877685873L133.3095655667925,48.99710266923584L134.8489914626942,48.179350245010355L136.38841735859592,49.61164032425879L137.92784325449762,50.14317654656508L139.46726915039932,51.23714121478667L141.00669504630105,49.11865581245258L142.54612094220275,47.718667693254545L144.08554683810445,50.58422704795143L145.62497273400615,51.319568143298206L147.16439862990785,48.94808207918693L148.70382452580958,53.294167934817764L150.24325042171128,53.12522533119572L151.78267631761298,49.40547232258948L153.32210221351468,52.36348390944576L154.86152810941638,58.04278163627064L156.4009540053181,65.18362787620573L157.94037990121984,69.74868231441178L159.47980579712154,71.32698858930874L161.01923169302324,70.73104054078951L162.55865758892497,69.67748054870698L164.09808348482667,70.72454213414248L165.63750938072837,73.54242650789371L167.17693527663008,74.32214578992635L168.7163611725318,73.9771072773469L170.2557870684335,73.86462258363586L171.7952129643352,74.6431696532783L173.33463886023694,75.62149220822738L174.87406475613864,73.08146627426514L176.41349065204034,74.515916680691L177.95291654794207,74.78952231179676L179.49234244384377,75.78087947460392L181.03176833974547,74.56584155568389L182.57119423564717,75.33960749312092L184.11062013154887,76.5498298287306L185.6500460274506,76.91757393086493L187.1894719233523,77.87411704076119L188.728897819254,77.72230155128864L190.2683237151557,79.77170492293L191.8077496110574,79.90144854605151L193.34717550695916,79.08007488669021L194.88660140286086,79.55129067042209L196.42602729876256,80.23644392671444L197.96545319466426,81.77765599411246L199.50487909056596,80.74396981311563L201.04430498646767,83.08021751680832L202.5837308823694,83.57818111824982L204.1231567782711,84.38872008179413L205.6625826741728,82.3932092240948L207.2020085700745,83.80663845903341L208.7414344659762,83.65100644981489L210.28086036187796,84.37719653323471L211.82028625777966,84.80980394035092L213.35971215368136,84.85175089720892L214.89913804958306,84.44023840526967L216.43856394548476,85.30333876121995L217.9779898413865,83.10118425812878L219.5174157372882,83.49232795615036L221.0568416331899,82.97379620330885L222.5962675290916,83.77852100026725L224.1356934249933,85.10341869518605L225.675119320895,84.3590092538408L227.21454521679672,82.61562839558354" style="fill: none;" fill="none"></path></g></g></g></g><g opacity="0.2"><g><g><g><path stroke="rgb(0, 119, 187)" stroke-width="2px" d="M74.81138152252757,136.96104443471893L76.35080741842927,170.16060653891125L77.89023331433098,176.74019765005926L79.42965921023269,170.03616585099067L80.9690851061344,170.9316237330256L82.50851100203612,160.8014649749671L84.04793689793782,158.5576115564579L85.58736279383953,146.98712172992452L87.12678868974123,144.61470937568905L88.66621458564293,141.00331926893261L90.20564048154465,138.70490776752138L91.74506637744635,127.26670070078644L93.28449227334808,120.74303655490972L94.82391816924978,110.92437974073515L96.36334406515148,100.68995970900404L97.9027699610532,95.64066888001297L99.4421958569549,96.40231851045661L100.9816217528566,87.01345595812313L102.52104764875833,81.76972582921256L104.06047354466003,80.3676016597464L105.59989944056174,74.0046071817824L107.13932533646344,64.17410025455564L108.67875123236514,64.79733615628443L110.21817712826686,67.89721668417619L111.75760302416857,62.84244452535922L113.29702892007028,59.8519933821188L114.83645481597199,56.07051964098671L116.37588071187369,51.584892229092766L117.9153066077754,45.037049328317316L119.4547325036771,44.32004498429694L120.99415839957882,45.59865362151156L122.53358429548054,41.71009093655858L124.07301019138224,42.543888208313874L125.61243608728394,42.77715794476196L127.15186198318565,44.534124266005364L128.69128787908735,49.54736592582393L130.23071377498908,44.80891000057928L131.77013967089079,49.79906917146433L133.3095655667925,49.176482908826024L134.8489914626942,47.82888492034231L136.38841735859592,50.22547892965098L137.92784325449762,50.37097778469637L139.46726915039932,51.70598321545307L141.00669504630105,48.21073349716652L142.54612094220275,47.118672785026824L144.08554683810445,51.81232391425009L145.62497273400615,51.63471432701827L147.16439862990785,47.931730908853524L148.70382452580958,55.156776158659554L150.24325042171128,53.05282135821488L151.78267631761298,47.81129246175821L153.32210221351468,53.6312031609556L154.86152810941638,60.476766376338446L156.4009540053181,68.24399055046364L157.94037990121984,71.7051342165001L159.47980579712154,72.00340556426458L161.01923169302324,70.47563423428126L162.55865758892497,69.22595483781446L164.09808348482667,71.17328281361482L165.63750938072837,74.75009123950139L167.17693527663008,74.65631119651175L168.7163611725318,73.8292336290986L170.2557870684335,73.81641485775971L171.7952129643352,74.9768326831251L173.33463886023694,76.04077330320555L174.87406475613864,71.99288373113846L176.41349065204034,75.13068114058781L177.95291654794207,74.90678186798496L179.49234244384377,76.20574683009269L181.03176833974547,74.04511101900387L182.57119423564717,75.67122146630821L184.11062013154887,77.0684965439919L185.6500460274506,77.07517854606536L187.1894719233523,78.28406408785959L188.728897819254,77.65723777008613L190.2683237151557,80.65002065363345L191.8077496110574,79.95705295596073L193.34717550695916,78.72805760410682L194.88660140286086,79.75324029202147L196.42602729876256,80.53008103655402L197.96545319466426,82.43817545156878L199.50487909056596,80.30096144983126L201.04430498646767,84.08146653267664L202.5837308823694,83.79159409029619L204.1231567782711,84.73609392331315L205.6625826741728,81.53799028508081L207.2020085700745,84.41239384543567L208.7414344659762,83.58430701729267L210.28086036187796,84.68842085470034L211.82028625777966,84.9952071148293L213.35971215368136,84.86972816443378L214.89913804958306,84.26387590872429L216.43856394548476,85.67323891377005L217.9779898413865,82.15740375680403L219.5174157372882,83.65996096958818L221.0568416331899,82.75156830923395L222.5962675290916,84.12340305610658L224.1356934249933,85.6712319930084L225.675119320895,84.03997663612141L227.21454521679672,81.86846517061612" style="fill: none;" fill="none"></path></g></g></g></g></g></g><g transform="translate(50, 177)" clip-path="url(#clip_1)"><clipPath id="clip_1"><rect width="280" height="23"></rect></clipPath><g><g><line x1="11.694919790557519" y1="0" x2="11.694919790557519" y2="5" style="visibility: inherit;" fill="rgb(0, 0, 0)" stroke="rgb(204, 204, 204)" stroke-width="1px"></line><line x1="42.483437708591694" y1="0" x2="42.483437708591694" y2="5" style="visibility: inherit;" fill="rgb(0, 0, 0)" stroke="rgb(204, 204, 204)" stroke-width="1px"></line><line x1="73.27195562662587" y1="0" x2="73.27195562662587" y2="5" style="visibility: inherit;" fill="rgb(0, 0, 0)" stroke="rgb(204, 204, 204)" stroke-width="1px"></line><line x1="104.06047354466003" y1="0" x2="104.06047354466003" y2="5" style="visibility: inherit;" fill="rgb(0, 0, 0)" stroke="rgb(204, 204, 204)" stroke-width="1px"></line><line x1="134.8489914626942" y1="0" x2="134.8489914626942" y2="5" style="visibility: inherit;" fill="rgb(0, 0, 0)" stroke="rgb(204, 204, 204)" stroke-width="1px"></line><line x1="165.63750938072837" y1="0" x2="165.63750938072837" y2="5" style="visibility: inherit;" fill="rgb(0, 0, 0)" stroke="rgb(204, 204, 204)" stroke-width="1px"></line><line x1="196.42602729876256" y1="0" x2="196.42602729876256" y2="5" style="visibility: inherit;" fill="rgb(0, 0, 0)" stroke="rgb(204, 204, 204)" stroke-width="1px"></line><line x1="227.21454521679672" y1="0" x2="227.21454521679672" y2="5" style="visibility: inherit;" fill="rgb(0, 0, 0)" stroke="rgb(204, 204, 204)" stroke-width="1px"></line><line x1="258.0030631348309" y1="0" x2="258.0030631348309" y2="5" style="visibility: inherit;" fill="rgb(0, 0, 0)" stroke="rgb(204, 204, 204)" stroke-width="1px"></line></g><g transform="translate(0, 8)"><text x="11.694919790557519" y="0" dx="0em" dy="0.95em" style="text-anchor: middle; visibility: hidden; font-family: Roboto, sans-serif; font-size: 12px; font-weight: 200;" fill="rgb(33, 33, 33)" stroke="none" stroke-width="1px">-400k</text><text x="42.483437708591694" y="0" dx="0em" dy="0.95em" style="text-anchor: middle; visibility: inherit; font-family: Roboto, sans-serif; font-size: 12px; font-weight: 200;" fill="rgb(33, 33, 33)" stroke="none" stroke-width="1px">-200k</text><text x="73.27195562662587" y="0" dx="0em" dy="0.95em" style="text-anchor: middle; visibility: hidden; font-family: Roboto, sans-serif; font-size: 12px; font-weight: 200;" fill="rgb(33, 33, 33)" stroke="none" stroke-width="1px">0</text><text x="104.06047354466003" y="0" dx="0em" dy="0.95em" style="text-anchor: middle; visibility: inherit; font-family: Roboto, sans-serif; font-size: 12px; font-weight: 200;" fill="rgb(33, 33, 33)" stroke="none" stroke-width="1px">200k</text><text x="134.8489914626942" y="0" dx="0em" dy="0.95em" style="text-anchor: middle; visibility: hidden; font-family: Roboto, sans-serif; font-size: 12px; font-weight: 200;" fill="rgb(33, 33, 33)" stroke="none" stroke-width="1px">400k</text><text x="165.63750938072837" y="0" dx="0em" dy="0.95em" style="text-anchor: middle; visibility: inherit; font-family: Roboto, sans-serif; font-size: 12px; font-weight: 200;" fill="rgb(33, 33, 33)" stroke="none" stroke-width="1px">600k</text><text x="196.42602729876256" y="0" dx="0em" dy="0.95em" style="text-anchor: middle; visibility: hidden; font-family: Roboto, sans-serif; font-size: 12px; font-weight: 200;" fill="rgb(33, 33, 33)" stroke="none" stroke-width="1px">800k</text><text x="227.21454521679672" y="0" dx="0em" dy="0.95em" style="text-anchor: middle; visibility: inherit; font-family: Roboto, sans-serif; font-size: 12px; font-weight: 200;" fill="rgb(33, 33, 33)" stroke="none" stroke-width="1px">1M</text><text x="258.0030631348309" y="0" dx="0em" dy="0.95em" style="text-anchor: middle; visibility: hidden; font-family: Roboto, sans-serif; font-size: 12px; font-weight: 200;" fill="rgb(33, 33, 33)" stroke="none" stroke-width="1px">1.2M</text></g><line x1="0" y1="0" x2="280" y2="0" fill="rgb(0, 0, 0)" stroke="rgb(204, 204, 204)" stroke-width="1px"></line></g></g></g></g></svg>