<svg viewBox="0 0 330 200" xmlns="http://www.w3.org/2000/svg"><g><g><g><g><g><line x1="41.171875" y1="171.30422478502945" x2="36.171875" y2="171.30422478502945" style="visibility: inherit;" fill="rgb(0, 0, 0)" stroke="rgb(204, 204, 204)" stroke-width="1px"></line><line x1="41.171875" y1="149.29173197025602" x2="36.171875" y2="149.29173197025602" style="visibility: inherit;" fill="rgb(0, 0, 0)" stroke="rgb(204, 204, 204)" stroke-width="1px"></line><line x1="41.171875" y1="127.2792391554826" x2="36.171875" y2="127.2792391554826" style="visibility: inherit;" fill="rgb(0, 0, 0)" stroke="rgb(204, 204, 204)" stroke-width="1px"></line><line x1="41.171875" y1="105.26674634070918" x2="36.171875" y2="105.26674634070918" style="visibility: inherit;" fill="rgb(0, 0, 0)" stroke="rgb(204, 204, 204)" stroke-width="1px"></line><line x1="41.171875" y1="83.25425352593575" x2="36.171875" y2="83.25425352593575" style="visibility: inherit;" fill="rgb(0, 0, 0)" stroke="rgb(204, 204, 204)" stroke-width="1px"></line><line x1="41.171875" y1="61.24176071116236" x2="36.171875" y2="61.24176071116236" style="visibility: inherit;" fill="rgb(0, 0, 0)" stroke="rgb(204, 204, 204)" stroke-width="1px"></line><line x1="41.171875" y1="39.229267896388905" x2="36.171875" y2="39.229267896388905" style="visibility: inherit;" fill="rgb(0, 0, 0)" stroke="rgb(204, 204, 204)" stroke-width="1px"></line><line x1="41.171875" y1="17.216775081615484" x2="36.171875" y2="17.216775081615484" style="visibility: inherit;" fill="rgb(0, 0, 0)" stroke="rgb(204, 204, 204)" stroke-width="1px"></line></g><g transform="translate(31.171875, 0)"><text x="0" y="171.30422478502945" dx="0em" dy="0.3em" style="text-anchor: end; visibility: inherit; font-family: Roboto, sans-serif; font-size: 12px; font-weight: 200;" fill="rgb(33, 33, 33)" stroke="none" stroke-width="1px">0.2</text><text x="0" y="149.29173197025602" dx="0em" dy="0.3em" style="text-anchor: end; visibility: hidden; font-family: Roboto, sans-serif; font-size: 12px; font-weight: 200;" fill="rgb(33, 33, 33)" stroke="none" stroke-width="1px">0.3</text><text x="0" y="127.2792391554826" dx="0em" dy="0.3em" style="text-anchor: end; visibility: inherit; font-family: Roboto, sans-serif; font-size: 12px; font-weight: 200;" fill="rgb(33, 33, 33)" stroke="none" stroke-width="1px">0.4</text><text x="0" y="105.26674634070918" dx="0em" dy="0.3em" style="text-anchor: end; visibility: hidden; font-family: Roboto, sans-serif; font-size: 12px; font-weight: 200;" fill="rgb(33, 33, 33)" stroke="none" stroke-width="1px">0.5</text><text x="0" y="83.25425352593575" dx="0em" dy="0.3em" style="text-anchor: end; visibility: inherit; font-family: Roboto, sans-serif; font-size: 12px; font-weight: 200;" fill="rgb(33, 33, 33)" stroke="none" stroke-width="1px">0.6</text><text x="0" y="61.24176071116236" dx="0em" dy="0.3em" style="text-anchor: end; visibility: hidden; font-family: Roboto, sans-serif; font-size: 12px; font-weight: 200;" fill="rgb(33, 33, 33)" stroke="none" stroke-width="1px">0.7</text><text x="0" y="39.229267896388905" dx="0em" dy="0.3em" style="text-anchor: end; visibility: inherit; font-family: Roboto, sans-serif; font-size: 12px; font-weight: 200;" fill="rgb(33, 33, 33)" stroke="none" stroke-width="1px">0.8</text><text x="0" y="17.216775081615484" dx="0em" dy="0.3em" style="text-anchor: end; visibility: hidden; font-family: Roboto, sans-serif; font-size: 12px; font-weight: 200;" fill="rgb(33, 33, 33)" stroke="none" stroke-width="1px">0.9</text></g><line x1="41.171875" y1="0" x2="41.171875" y2="177" fill="rgb(0, 0, 0)" stroke="rgb(204, 204, 204)" stroke-width="1px"></line></g></g><g transform="translate(41, 0)" clip-path="url(#clip_0)"><clipPath id="clip_0"><rect width="288" height="177"></rect></clipPath><g><g><g><line x1="4.081570795060313" y1="0" x2="4.081570795060313" y2="177" fill="rgb(0, 0, 0)" stroke="rgb(66, 66, 66)" stroke-width="1px" opacity="0.25"></line><line x1="25.034861371269763" y1="0" x2="25.034861371269763" y2="177" fill="rgb(0, 0, 0)" stroke="rgb(66, 66, 66)" stroke-width="1px" opacity="0.25"></line><line x1="45.98815194747921" y1="0" x2="45.98815194747921" y2="177" fill="rgb(0, 0, 0)" stroke="rgb(66, 66, 66)" stroke-width="1px" opacity="0.25"></line><line x1="66.94144252368865" y1="0" x2="66.94144252368865" y2="177" fill="rgb(0, 0, 0)" stroke="rgb(66, 66, 66)" stroke-width="1px" opacity="0.25"></line><line x1="87.8947330998981" y1="0" x2="87.8947330998981" y2="177" fill="rgb(0, 0, 0)" stroke="rgb(66, 66, 66)" stroke-width="1px" opacity="0.25"></line><line x1="108.84802367610754" y1="0" x2="108.84802367610754" y2="177" fill="rgb(0, 0, 0)" stroke="rgb(66, 66, 66)" stroke-width="1px" opacity="0.25"></line><line x1="129.80131425231698" y1="0" x2="129.80131425231698" y2="177" fill="rgb(0, 0, 0)" stroke="rgb(66, 66, 66)" stroke-width="1px" opacity="0.25"></line><line x1="150.75460482852645" y1="0" x2="150.75460482852645" y2="177" fill="rgb(0, 0, 0)" stroke="rgb(66, 66, 66)" stroke-width="1px" opacity="0.25"></line><line x1="171.7078954047359" y1="0" x2="171.7078954047359" y2="177" fill="rgb(0, 0, 0)" stroke="rgb(66, 66, 66)" stroke-width="1px" opacity="0.25"></line><line x1="192.66118598094536" y1="0" x2="192.66118598094536" y2="177" fill="rgb(0, 0, 0)" stroke="rgb(66, 66, 66)" stroke-width="1px" opacity="0.25"></line><line x1="213.6144765571548" y1="0" x2="213.6144765571548" y2="177" fill="rgb(0, 0, 0)" stroke="rgb(66, 66, 66)" stroke-width="1px" opacity="0.25"></line><line x1="234.5677671333642" y1="0" x2="234.5677671333642" y2="177" fill="rgb(0, 0, 0)" stroke="rgb(66, 66, 66)" stroke-width="1px" opacity="0.25"></line><line x1="255.52105770957365" y1="0" x2="255.52105770957365" y2="177" fill="rgb(0, 0, 0)" stroke="rgb(66, 66, 66)" stroke-width="1px" opacity="0.25"></line><line x1="276.4743482857831" y1="0" x2="276.4743482857831" y2="177" fill="rgb(0, 0, 0)" stroke="rgb(66, 66, 66)" stroke-width="1px" opacity="0.25"></line></g><g><line x1="0" y1="171.30422478502945" x2="288.828125" y2="171.30422478502945" fill="rgb(0, 0, 0)" stroke="rgb(66, 66, 66)" stroke-width="1px" opacity="0.25"></line><line x1="0" y1="149.29173197025602" x2="288.828125" y2="149.29173197025602" fill="rgb(0, 0, 0)" stroke="rgb(66, 66, 66)" stroke-width="1px" opacity="0.25"></line><line x1="0" y1="127.2792391554826" x2="288.828125" y2="127.2792391554826" fill="rgb(0, 0, 0)" stroke="rgb(66, 66, 66)" stroke-width="1px" opacity="0.25"></line><line x1="0" y1="105.26674634070918" x2="288.828125" y2="105.26674634070918" fill="rgb(0, 0, 0)" stroke="rgb(66, 66, 66)" stroke-width="1px" opacity="0.25"></line><line x1="0" y1="83.25425352593575" x2="288.828125" y2="83.25425352593575" fill="rgb(0, 0, 0)" stroke="rgb(66, 66, 66)" stroke-width="1px" opacity="0.25"></line><line x1="0" y1="61.24176071116236" x2="288.828125" y2="61.24176071116236" fill="rgb(0, 0, 0)" stroke="rgb(66, 66, 66)" stroke-width="1px" opacity="0.25"></line><line x1="0" y1="39.229267896388905" x2="288.828125" y2="39.229267896388905" fill="rgb(0, 0, 0)" stroke="rgb(66, 66, 66)" stroke-width="1px" opacity="0.25"></line><line x1="0" y1="17.216775081615484" x2="288.828125" y2="17.216775081615484" fill="rgb(0, 0, 0)" stroke="rgb(66, 66, 66)" stroke-width="1px" opacity="0.25"></line></g></g></g><g><g><line x1="0" y1="215.32921041457632" x2="288.828125" y2="215.32921041457632" fill="rgb(0, 0, 0)" stroke="rgb(153, 153, 153)" stroke-width="1.5px"></line></g></g><g><g><line x1="45.98815194747921" y1="0" x2="45.98815194747921" y2="177" fill="rgb(0, 0, 0)" stroke="rgb(153, 153, 153)" stroke-width="1.5px"></line></g></g><g><g><g><g><g><path stroke="rgb(0, 119, 187)" stroke-width="2px" d="M64.8461134660677,-3.1874697045995197L66.94144252368865,7.114003955434548L69.03677158130961,21.15264303872239L71.13210063893055,44.84815836135474L73.2274296965515,49.26391944929149L75.32275875417244,60.02299105893452L77.41808781179338,69.46478236553607L79.51341686941433,89.93248715456164L81.60874592703527,95.7487846136072L83.70407498465622,115.45575284831942L85.79940404227716,112.59287486910277L87.8947330998981,138.1516050367377L89.99006215751905,134.5581499782632L92.08539121513999,137.36148382306453L94.18072027276094,140.43298980267252L96.27604933038188,140.8884747304939L98.37137838800282,143.6024032882946L100.46670744562377,137.08181702555078L102.56203650324471,140.06018295899725L104.65736556086566,141.14944749971247L106.7526946184866,129.66534675258734L108.84802367610754,105.03229040242182L110.94335273372849,99.8502766930663L113.03868179134943,116.83332421001133L115.13401084897038,123.73492430504334L117.22933990659132,122.56862223466354L119.32466896421226,147.90116566266548L121.41999802183322,144.59688613839194L123.51532707945417,137.12238994707812L125.61065613707511,143.3485606610139L127.70598519469605,143.4700349231139L129.80131425231698,127.54581016079605L131.89664330993793,133.7496372020468L133.99197236755887,127.65168366351764L136.08730142517982,132.89536419844708L138.18263048280076,119.40888948550098L140.2779595404217,112.39080219118844L142.37328859804265,120.2736997540135L144.46861765566362,130.90053306412983L146.56394671328457,117.64731851612625L148.6592757709055,127.47791060434074L150.75460482852645,136.67458020215193L152.8499338861474,125.38099945051103L154.94526294376834,126.41307121124716L157.04059200138929,143.1096411664655L159.13592105901023,166.30587249655048L161.23125011663117,175.68112473798521L163.32657917425212,174.23467508509708L165.42190823187306,171.2992461819892L167.517237289494,157.19544955419414L169.61256634711495,146.34378334832257L171.7078954047359,133.8351559838132L173.80322446235684,130.7664236309664L175.89855351997778,115.12095246702059L177.99388257759873,124.68217297433604L180.08921163521967,118.09927353006226L182.1845406928406,126.97628845242372L184.27986975046156,137.33056937225786L186.3751988080825,140.38176605064L188.47052786570345,129.24813206476315L190.56585692332442,131.42270255635984L192.66118598094536,139.00809767149767L194.7565150385663,131.69939266196013L196.85184409618725,136.16850008638397L198.9471731538082,137.8367592161244L201.04250221142914,150.4251347565918L203.13783126905008,156.1802087673316L205.23316032667103,149.0225516881636L207.32848938429197,149.31466710854L209.4238184419129,135.1128700686762L211.51914749953386,131.83598163813434L213.6144765571548,134.6314715147876L215.70980561477575,141.70890370646708L217.8051346723967,143.88476874604214L219.9004637300176,148.5990216551412L221.99579278763855,144.71779786034597L224.0911218452595,146.78251176201704L226.18645090288044,129.0720421640847L228.28177996050138,137.14921482145135L230.37710901812233,138.32979596277903L232.47243807574327,143.97997051856214L234.5677671333642,143.01610490904665L236.66309619098516,145.88946744343136L238.7584252486061,140.18774946089863L240.85375430622705,143.37300883116998L242.949083363848,124.9096712163257L245.04441242146893,140.37899755725502L247.13974147908988,140.2729216074024L249.23507053671082,142.49040955959387L251.33039959433177,146.3472144145266L253.4257286519527,145.69246354485455L255.52105770957365,132.65702320196203" style="fill: none;" fill="none"></path></g></g></g></g><g opacity="0.2"><g><g><g><path stroke="rgb(0, 119, 187)" stroke-width="2px" d="M64.8461134660677,-0.14792309624956057L66.94144252368865,11.528834339489393L69.03677158130961,27.169167118662976L71.13210063893055,55.00336122424236L73.2274296965515,51.15638748124302L75.32275875417244,64.63402101363432L77.41808781179338,73.5112641605376L79.51341686941433,98.7043605097058L81.60874592703527,98.24148351389647L83.70407498465622,123.90159636657481L85.79940404227716,111.36592716419955L87.8947330998981,149.10534653587953L89.99006215751905,133.01809781039924L92.08539121513999,138.56291261368114L94.18072027276094,141.7493495082147L96.27604933038188,141.08368255670285L98.37137838800282,144.76551552735168L100.46670744562377,134.28728005580365L102.56203650324471,141.33662550190283L104.65736556086566,141.616275160019L106.7526946184866,124.7435892895337L108.84802367610754,94.47526625235089L110.94335273372849,97.62941367477111L113.03868179134943,124.1117731458449L115.13401084897038,126.6927529171999L117.22933990659132,122.06877849021505L119.32466896421226,158.75796998895203L121.41999802183322,143.18076634227472L123.51532707945417,133.91903443651506L125.61065613707511,146.01691953841492L127.70598519469605,143.52209532115674L129.80131425231698,120.72114240551696L131.89664330993793,136.4084202197257L133.99197236755887,125.03827500414798L136.08730142517982,135.14265585627396L138.18263048280076,113.62897175138121L140.2779595404217,109.3830504936259L142.37328859804265,123.65208442379566L144.46861765566362,135.4548901970368L146.56394671328457,111.96736942412468L148.6592757709055,131.69102149928977L150.75460482852645,140.61601002978531L152.8499338861474,120.54089341409349L154.94526294376834,126.85538768013406L157.04059200138929,150.2653140044162L159.13592105901023,176.24711449515834L161.23125011663117,179.6990899843144L163.32657917425212,173.61476809100216L165.42190823187306,170.0412052235144L167.517237289494,151.15096528513908L169.61256634711495,141.6930692600919L171.7078954047359,128.47431568473775L173.80322446235684,129.45125262260348L175.89855351997778,108.4157505396152L177.99388257759873,128.77983890604264L180.08921163521967,115.27803091108781L182.1845406928406,130.78072341915004L184.27986975046156,141.76811833790106L186.3751988080825,141.68942176994662L188.47052786570345,124.47657464224453L190.56585692332442,132.35466133847265L192.66118598094536,142.25898129227102L194.7565150385663,128.56709051501548L196.85184409618725,138.08383183970847L198.9471731538082,138.55172741458458L201.04250221142914,155.8201528453635L203.13783126905008,158.64666905764867L205.23316032667103,145.95498436852014L207.32848938429197,149.43985943155846L209.4238184419129,129.02638562302025L211.51914749953386,130.43160088218784L213.6144765571548,135.82953860478182L215.70980561477575,144.7420889314726L217.8051346723967,144.8172823344314L219.9004637300176,150.61941575904078L221.99579278763855,143.05441623400512L224.0911218452595,147.66738914844748L226.18645090288044,121.48184090782802L228.28177996050138,140.61086024603702L230.37710901812233,138.8357593090623L232.47243807574327,146.40147389961203L234.5677671333642,142.6030196478257L236.66309619098516,147.12090852959622L238.7584252486061,137.74415603981313L240.85375430622705,144.73811998985772L242.949083363848,116.99681223853528L245.04441242146893,147.00870884622472L247.13974147908988,140.227460486037L249.23507053671082,143.4407615391045L251.33039959433177,148.00013078092636L253.4257286519527,145.4118560292808L255.52105770957365,127.07040591215093" style="fill: none;" fill="none"></path></g></g></g></g></g></g><g transform="translate(41, 177)" clip-path="url(#clip_1)"><clipPath id="clip_1"><rect width="288" height="23"></rect></clipPath><g><g><line x1="4.081570795060313" y1="0" x2="4.081570795060313" y2="5" style="visibility: inherit;" fill="rgb(0, 0, 0)" stroke="rgb(204, 204, 204)" stroke-width="1px"></line><line x1="25.034861371269763" y1="0" x2="25.034861371269763" y2="5" style="visibility: inherit;" fill="rgb(0, 0, 0)" stroke="rgb(204, 204, 204)" stroke-width="1px"></line><line x1="45.98815194747921" y1="0" x2="45.98815194747921" y2="5" style="visibility: inherit;" fill="rgb(0, 0, 0)" stroke="rgb(204, 204, 204)" stroke-width="1px"></line><line x1="66.94144252368865" y1="0" x2="66.94144252368865" y2="5" style="visibility: inherit;" fill="rgb(0, 0, 0)" stroke="rgb(204, 204, 204)" stroke-width="1px"></line><line x1="87.8947330998981" y1="0" x2="87.8947330998981" y2="5" style="visibility: inherit;" fill="rgb(0, 0, 0)" stroke="rgb(204, 204, 204)" stroke-width="1px"></line><line x1="108.84802367610754" y1="0" x2="108.84802367610754" y2="5" style="visibility: inherit;" fill="rgb(0, 0, 0)" stroke="rgb(204, 204, 204)" stroke-width="1px"></line><line x1="129.80131425231698" y1="0" x2="129.80131425231698" y2="5" style="visibility: inherit;" fill="rgb(0, 0, 0)" stroke="rgb(204, 204, 204)" stroke-width="1px"></line><line x1="150.75460482852645" y1="0" x2="150.75460482852645" y2="5" style="visibility: inherit;" fill="rgb(0, 0, 0)" stroke="rgb(204, 204, 204)" stroke-width="1px"></line><line x1="171.7078954047359" y1="0" x2="171.7078954047359" y2="5" style="visibility: inherit;" fill="rgb(0, 0, 0)" stroke="rgb(204, 204, 204)" stroke-width="1px"></line><line x1="192.66118598094536" y1="0" x2="192.66118598094536" y2="5" style="visibility: inherit;" fill="rgb(0, 0, 0)" stroke="rgb(204, 204, 204)" stroke-width="1px"></line><line x1="213.6144765571548" y1="0" x2="213.6144765571548" y2="5" style="visibility: inherit;" fill="rgb(0, 0, 0)" stroke="rgb(204, 204, 204)" stroke-width="1px"></line><line x1="234.5677671333642" y1="0" x2="234.5677671333642" y2="5" style="visibility: inherit;" fill="rgb(0, 0, 0)" stroke="rgb(204, 204, 204)" stroke-width="1px"></line><line x1="255.52105770957365" y1="0" x2="255.52105770957365" y2="5" style="visibility: inherit;" fill="rgb(0, 0, 0)" stroke="rgb(204, 204, 204)" stroke-width="1px"></line><line x1="276.4743482857831" y1="0" x2="276.4743482857831" y2="5" style="visibility: inherit;" fill="rgb(0, 0, 0)" stroke="rgb(204, 204, 204)" stroke-width="1px"></line></g><g transform="translate(0, 8)"><text x="4.081570795060313" y="0" dx="0em" dy="0.95em" style="text-anchor: middle; visibility: hidden; font-family: Roboto, sans-serif; font-size: 12px; font-weight: 200;" fill="rgb(33, 33, 33)" stroke="none" stroke-width="1px">-200k</text><text x="25.034861371269763" y="0" dx="0em" dy="0.95em" style="text-anchor: middle; visibility: inherit; font-family: Roboto, sans-serif; font-size: 12px; font-weight: 200;" fill="rgb(33, 33, 33)" stroke="none" stroke-width="1px">-100k</text><text x="45.98815194747921" y="0" dx="0em" dy="0.95em" style="text-anchor: middle; visibility: hidden; font-family: Roboto, sans-serif; font-size: 12px; font-weight: 200;" fill="rgb(33, 33, 33)" stroke="none" stroke-width="1px">0</text><text x="66.94144252368865" y="0" dx="0em" dy="0.95em" style="text-anchor: middle; visibility: inherit; font-family: Roboto, sans-serif; font-size: 12px; font-weight: 200;" fill="rgb(33, 33, 33)" stroke="none" stroke-width="1px">100k</text><text x="87.8947330998981" y="0" dx="0em" dy="0.95em" style="text-anchor: middle; visibility: hidden; font-family: Roboto, sans-serif; font-size: 12px; font-weight: 200;" fill="rgb(33, 33, 33)" stroke="none" stroke-width="1px">200k</text><text x="108.84802367610754" y="0" dx="0em" dy="0.95em" style="text-anchor: middle; visibility: inherit; font-family: Roboto, sans-serif; font-size: 12px; font-weight: 200;" fill="rgb(33, 33, 33)" stroke="none" stroke-width="1px">300k</text><text x="129.80131425231698" y="0" dx="0em" dy="0.95em" style="text-anchor: middle; visibility: hidden; font-family: Roboto, sans-serif; font-size: 12px; font-weight: 200;" fill="rgb(33, 33, 33)" stroke="none" stroke-width="1px">400k</text><text x="150.75460482852645" y="0" dx="0em" dy="0.95em" style="text-anchor: middle; visibility: inherit; font-family: Roboto, sans-serif; font-size: 12px; font-weight: 200;" fill="rgb(33, 33, 33)" stroke="none" stroke-width="1px">500k</text><text x="171.7078954047359" y="0" dx="0em" dy="0.95em" style="text-anchor: middle; visibility: hidden; font-family: Roboto, sans-serif; font-size: 12px; font-weight: 200;" fill="rgb(33, 33, 33)" stroke="none" stroke-width="1px">600k</text><text x="192.66118598094536" y="0" dx="0em" dy="0.95em" style="text-anchor: middle; visibility: inherit; font-family: Roboto, sans-serif; font-size: 12px; font-weight: 200;" fill="rgb(33, 33, 33)" stroke="none" stroke-width="1px">700k</text><text x="213.6144765571548" y="0" dx="0em" dy="0.95em" style="text-anchor: middle; visibility: hidden; font-family: Roboto, sans-serif; font-size: 12px; font-weight: 200;" fill="rgb(33, 33, 33)" stroke="none" stroke-width="1px">800k</text><text x="234.5677671333642" y="0" dx="0em" dy="0.95em" style="text-anchor: middle; visibility: inherit; font-family: Roboto, sans-serif; font-size: 12px; font-weight: 200;" fill="rgb(33, 33, 33)" stroke="none" stroke-width="1px">900k</text><text x="255.52105770957365" y="0" dx="0em" dy="0.95em" style="text-anchor: middle; visibility: hidden; font-family: Roboto, sans-serif; font-size: 12px; font-weight: 200;" fill="rgb(33, 33, 33)" stroke="none" stroke-width="1px">1M</text><text x="276.4743482857831" y="0" dx="0em" dy="0.95em" style="text-anchor: middle; visibility: inherit; font-family: Roboto, sans-serif; font-size: 12px; font-weight: 200;" fill="rgb(33, 33, 33)" stroke="none" stroke-width="1px">1.1M</text></g><line x1="0" y1="0" x2="288.828125" y2="0" fill="rgb(0, 0, 0)" stroke="rgb(204, 204, 204)" stroke-width="1px"></line></g></g></g></g></svg>